<mxfile host="app.diagrams.net" agent="Mozilla/5.0 (Macintosh; Intel Mac OS X 10_15_7) AppleWebKit/537.36 (KHTML, like Gecko) Chrome/126.0.0.0 Safari/537.36" version="24.7.6">
  <diagram name="Page-1" id="_G7q0agkwL5MyS-NUY3p">
    <mxGraphModel dx="2788" dy="2012" grid="1" gridSize="10" guides="1" tooltips="1" connect="1" arrows="1" fold="1" page="0" pageScale="1" pageWidth="850" pageHeight="1100" math="0" shadow="0">
      <root>
        <mxCell id="0" />
        <mxCell id="1" parent="0" />
        <mxCell id="jbjfD_LgMQHEfF6mrriQ-1" value="&lt;font style=&quot;font-size: 18px;&quot;&gt;Personnel&lt;/font&gt;" style="rounded=0;whiteSpace=wrap;html=1;" parent="1" vertex="1">
          <mxGeometry x="425" y="116.5" width="120" height="60" as="geometry" />
        </mxCell>
        <mxCell id="jbjfD_LgMQHEfF6mrriQ-21" value="&lt;font style=&quot;font-size: 18px;&quot;&gt;Location&lt;/font&gt;" style="rounded=0;whiteSpace=wrap;html=1;" parent="1" vertex="1">
          <mxGeometry x="796.75" y="531.5" width="120" height="60" as="geometry" />
        </mxCell>
        <mxCell id="jbjfD_LgMQHEfF6mrriQ-39" value="Operates" style="rhombus;whiteSpace=wrap;html=1;" parent="1" vertex="1">
          <mxGeometry x="415" y="261" width="80" height="80" as="geometry" />
        </mxCell>
        <mxCell id="jbjfD_LgMQHEfF6mrriQ-40" value="&lt;font style=&quot;font-size: 14px;&quot;&gt;Manages&lt;/font&gt;" style="rhombus;whiteSpace=wrap;html=1;" parent="1" vertex="1">
          <mxGeometry x="475.25000000000006" y="345.75" width="80" height="80" as="geometry" />
        </mxCell>
        <mxCell id="jbjfD_LgMQHEfF6mrriQ-42" value="" style="endArrow=classic;html=1;rounded=0;entryX=0.75;entryY=1;entryDx=0;entryDy=0;exitX=0.5;exitY=0;exitDx=0;exitDy=0;" parent="1" source="jbjfD_LgMQHEfF6mrriQ-40" target="jbjfD_LgMQHEfF6mrriQ-1" edge="1">
          <mxGeometry width="50" height="50" relative="1" as="geometry">
            <mxPoint x="407.56" y="521.5" as="sourcePoint" />
            <mxPoint x="585.5" y="386.5" as="targetPoint" />
          </mxGeometry>
        </mxCell>
        <mxCell id="Gakhrwl31I4esTH9U-xx-1" value="&lt;font style=&quot;font-size: 18px;&quot;&gt;Person&lt;/font&gt;" style="rounded=0;whiteSpace=wrap;html=1;" parent="1" vertex="1">
          <mxGeometry x="690" y="-416" width="120" height="60" as="geometry" />
        </mxCell>
        <mxCell id="Gakhrwl31I4esTH9U-xx-2" value="&lt;font style=&quot;font-size: 18px;&quot;&gt;FamilyMember&lt;/font&gt;" style="rounded=0;whiteSpace=wrap;html=1;" parent="1" vertex="1">
          <mxGeometry x="819" y="-90" width="150" height="60" as="geometry" />
        </mxCell>
        <mxCell id="Gakhrwl31I4esTH9U-xx-3" value="&lt;font style=&quot;font-size: 18px;&quot;&gt;ClubMember&lt;/font&gt;" style="rounded=0;whiteSpace=wrap;html=1;" parent="1" vertex="1">
          <mxGeometry x="1517" y="-90" width="120" height="60" as="geometry" />
        </mxCell>
        <mxCell id="Gakhrwl31I4esTH9U-xx-4" value="" style="triangle;whiteSpace=wrap;html=1;rotation=-90;" parent="1" vertex="1">
          <mxGeometry x="470" y="-228.5" width="30" height="40" as="geometry" />
        </mxCell>
        <mxCell id="Gakhrwl31I4esTH9U-xx-5" value="isa" style="text;html=1;align=center;verticalAlign=middle;whiteSpace=wrap;rounded=0;" parent="1" vertex="1">
          <mxGeometry x="462.5" y="-213.5" width="45" height="20" as="geometry" />
        </mxCell>
        <mxCell id="Gakhrwl31I4esTH9U-xx-6" value="" style="endArrow=none;html=1;rounded=0;entryX=0.5;entryY=1;entryDx=0;entryDy=0;exitX=0.5;exitY=0;exitDx=0;exitDy=0;" parent="1" source="jbjfD_LgMQHEfF6mrriQ-1" target="Gakhrwl31I4esTH9U-xx-5" edge="1">
          <mxGeometry width="50" height="50" relative="1" as="geometry">
            <mxPoint x="847.5" y="-68.5" as="sourcePoint" />
            <mxPoint x="887.5" y="-98.49000000000001" as="targetPoint" />
          </mxGeometry>
        </mxCell>
        <mxCell id="Gakhrwl31I4esTH9U-xx-7" value="" style="triangle;whiteSpace=wrap;html=1;rotation=-90;" parent="1" vertex="1">
          <mxGeometry x="879" y="-225" width="30" height="40" as="geometry" />
        </mxCell>
        <mxCell id="Gakhrwl31I4esTH9U-xx-8" value="isa" style="text;html=1;align=center;verticalAlign=middle;whiteSpace=wrap;rounded=0;" parent="1" vertex="1">
          <mxGeometry x="871.5" y="-210" width="45" height="20" as="geometry" />
        </mxCell>
        <mxCell id="Gakhrwl31I4esTH9U-xx-9" value="" style="triangle;whiteSpace=wrap;html=1;rotation=-90;" parent="1" vertex="1">
          <mxGeometry x="1562" y="-225" width="30" height="40" as="geometry" />
        </mxCell>
        <mxCell id="Gakhrwl31I4esTH9U-xx-10" value="isa" style="text;html=1;align=center;verticalAlign=middle;whiteSpace=wrap;rounded=0;" parent="1" vertex="1">
          <mxGeometry x="1554.5" y="-210" width="45" height="20" as="geometry" />
        </mxCell>
        <mxCell id="Gakhrwl31I4esTH9U-xx-11" value="" style="endArrow=none;html=1;rounded=0;entryX=0.5;entryY=1;entryDx=0;entryDy=0;exitX=0.5;exitY=0;exitDx=0;exitDy=0;" parent="1" source="Gakhrwl31I4esTH9U-xx-2" target="Gakhrwl31I4esTH9U-xx-8" edge="1">
          <mxGeometry width="50" height="50" relative="1" as="geometry">
            <mxPoint x="856.5" y="-165" as="sourcePoint" />
            <mxPoint x="986.5" y="-175" as="targetPoint" />
          </mxGeometry>
        </mxCell>
        <mxCell id="Gakhrwl31I4esTH9U-xx-12" value="" style="endArrow=none;html=1;rounded=0;entryX=0.5;entryY=1;entryDx=0;entryDy=0;exitX=0.5;exitY=0;exitDx=0;exitDy=0;" parent="1" source="Gakhrwl31I4esTH9U-xx-3" target="Gakhrwl31I4esTH9U-xx-10" edge="1">
          <mxGeometry width="50" height="50" relative="1" as="geometry">
            <mxPoint x="1237.5" y="-160" as="sourcePoint" />
            <mxPoint x="1157" y="-170" as="targetPoint" />
          </mxGeometry>
        </mxCell>
        <mxCell id="Gakhrwl31I4esTH9U-xx-13" value="" style="endArrow=none;html=1;rounded=0;entryX=0.5;entryY=1;entryDx=0;entryDy=0;exitX=1;exitY=0.5;exitDx=0;exitDy=0;" parent="1" source="Gakhrwl31I4esTH9U-xx-4" target="Gakhrwl31I4esTH9U-xx-1" edge="1">
          <mxGeometry width="50" height="50" relative="1" as="geometry">
            <mxPoint x="880" y="90" as="sourcePoint" />
            <mxPoint x="930" y="40" as="targetPoint" />
            <Array as="points">
              <mxPoint x="485" y="-290" />
              <mxPoint x="750" y="-290" />
            </Array>
          </mxGeometry>
        </mxCell>
        <mxCell id="Gakhrwl31I4esTH9U-xx-14" value="" style="endArrow=none;html=1;rounded=0;entryX=0.5;entryY=1;entryDx=0;entryDy=0;exitX=1;exitY=0.5;exitDx=0;exitDy=0;" parent="1" source="Gakhrwl31I4esTH9U-xx-7" target="Gakhrwl31I4esTH9U-xx-1" edge="1">
          <mxGeometry width="50" height="50" relative="1" as="geometry">
            <mxPoint x="749" y="-216" as="sourcePoint" />
            <mxPoint x="759" y="-346" as="targetPoint" />
            <Array as="points">
              <mxPoint x="894" y="-290" />
              <mxPoint x="750" y="-290" />
            </Array>
          </mxGeometry>
        </mxCell>
        <mxCell id="Gakhrwl31I4esTH9U-xx-15" value="" style="endArrow=none;html=1;rounded=0;entryX=1;entryY=0.5;entryDx=0;entryDy=0;exitX=0.5;exitY=1;exitDx=0;exitDy=0;" parent="1" source="Gakhrwl31I4esTH9U-xx-1" target="Gakhrwl31I4esTH9U-xx-9" edge="1">
          <mxGeometry width="50" height="50" relative="1" as="geometry">
            <mxPoint x="500" y="-180" as="sourcePoint" />
            <mxPoint x="915" y="-340" as="targetPoint" />
            <Array as="points">
              <mxPoint x="750" y="-290" />
              <mxPoint x="1577" y="-290" />
            </Array>
          </mxGeometry>
        </mxCell>
        <mxCell id="Gakhrwl31I4esTH9U-xx-20" value="&lt;font style=&quot;font-size: 14px;&quot;&gt;&lt;u&gt;&lt;b&gt;personID&lt;/b&gt;&lt;/u&gt;&lt;/font&gt;" style="ellipse;whiteSpace=wrap;html=1;align=center;" parent="1" vertex="1">
          <mxGeometry x="520" y="-499.5" width="85" height="50" as="geometry" />
        </mxCell>
        <mxCell id="Gakhrwl31I4esTH9U-xx-21" value="&lt;font style=&quot;font-size: 14px;&quot;&gt;firstName&lt;/font&gt;" style="ellipse;whiteSpace=wrap;html=1;align=center;" parent="1" vertex="1">
          <mxGeometry x="717.5" y="-557.5" width="85" height="50" as="geometry" />
        </mxCell>
        <mxCell id="Gakhrwl31I4esTH9U-xx-22" value="&lt;font style=&quot;font-size: 14px;&quot;&gt;lastName&lt;/font&gt;" style="ellipse;whiteSpace=wrap;html=1;align=center;" parent="1" vertex="1">
          <mxGeometry x="867.5" y="-359.5" width="85" height="50" as="geometry" />
        </mxCell>
        <mxCell id="Gakhrwl31I4esTH9U-xx-24" value="&lt;font style=&quot;font-size: 14px;&quot;&gt;SSN&lt;/font&gt;" style="ellipse;whiteSpace=wrap;html=1;align=center;" parent="1" vertex="1">
          <mxGeometry x="890" y="-484.5" width="75" height="50" as="geometry" />
        </mxCell>
        <mxCell id="Gakhrwl31I4esTH9U-xx-25" value="&lt;span style=&quot;font-size: 14px;&quot;&gt;dateOfBirth&lt;/span&gt;" style="ellipse;whiteSpace=wrap;html=1;align=center;" parent="1" vertex="1">
          <mxGeometry x="814" y="-530.5" width="85" height="50" as="geometry" />
        </mxCell>
        <mxCell id="Gakhrwl31I4esTH9U-xx-29" value="&lt;font style=&quot;font-size: 14px;&quot;&gt;telephoneNumber&lt;/font&gt;" style="ellipse;whiteSpace=wrap;html=1;align=center;" parent="1" vertex="1">
          <mxGeometry x="577.5" y="-549.5" width="135" height="50" as="geometry" />
        </mxCell>
        <mxCell id="Gakhrwl31I4esTH9U-xx-30" value="&lt;span style=&quot;font-size: 14px;&quot;&gt;medicareCardNumber&lt;/span&gt;" style="ellipse;whiteSpace=wrap;html=1;align=center;" parent="1" vertex="1">
          <mxGeometry x="840" y="-416.5" width="175" height="50" as="geometry" />
        </mxCell>
        <mxCell id="Gakhrwl31I4esTH9U-xx-32" value="&lt;span style=&quot;font-size: 14px;&quot;&gt;emailAddress&lt;/span&gt;" style="ellipse;whiteSpace=wrap;html=1;align=center;" parent="1" vertex="1">
          <mxGeometry x="536" y="-359.5" width="100" height="50" as="geometry" />
        </mxCell>
        <mxCell id="Gakhrwl31I4esTH9U-xx-40" value="&lt;span style=&quot;font-size: 14px;&quot;&gt;clubMembershipID&lt;/span&gt;" style="ellipse;whiteSpace=wrap;html=1;align=center;" parent="1" vertex="1">
          <mxGeometry x="1663.5" y="-100" width="140" height="50" as="geometry" />
        </mxCell>
        <mxCell id="Gakhrwl31I4esTH9U-xx-45" value="&lt;span style=&quot;font-size: 14px;&quot;&gt;&lt;u&gt;&lt;b&gt;startDate&lt;/b&gt;&lt;/u&gt;&lt;/span&gt;" style="ellipse;whiteSpace=wrap;html=1;align=center;" parent="1" vertex="1">
          <mxGeometry x="280" y="226.5" width="90" height="50" as="geometry" />
        </mxCell>
        <mxCell id="Gakhrwl31I4esTH9U-xx-46" value="&lt;span style=&quot;font-size: 14px;&quot;&gt;endDate&lt;/span&gt;" style="ellipse;whiteSpace=wrap;html=1;align=center;" parent="1" vertex="1">
          <mxGeometry x="292.5" y="324.5" width="90" height="50" as="geometry" />
        </mxCell>
        <mxCell id="Gakhrwl31I4esTH9U-xx-55" value="" style="ellipse;whiteSpace=wrap;html=1;fillColor=none;" parent="1" vertex="1">
          <mxGeometry x="970" y="-68" width="85.75" height="16" as="geometry" />
        </mxCell>
        <mxCell id="Gakhrwl31I4esTH9U-xx-56" value="" style="rounded=0;whiteSpace=wrap;html=1;strokeColor=none;" parent="1" vertex="1">
          <mxGeometry x="980.25" y="-80" width="94.5" height="36" as="geometry" />
        </mxCell>
        <mxCell id="Gakhrwl31I4esTH9U-xx-57" value="" style="endArrow=none;html=1;exitX=1;exitY=0.5;exitDx=0;exitDy=0;entryX=0.5;entryY=0;entryDx=0;entryDy=0;" parent="1" source="Gakhrwl31I4esTH9U-xx-2" target="6_mZaNbz55coI-xGDjYG-18" edge="1">
          <mxGeometry width="50" height="50" relative="1" as="geometry">
            <mxPoint x="1030" y="-110" as="sourcePoint" />
            <mxPoint x="1110" y="-60" as="targetPoint" />
            <Array as="points">
              <mxPoint x="1000" y="-60" />
            </Array>
          </mxGeometry>
        </mxCell>
        <mxCell id="Gakhrwl31I4esTH9U-xx-60" style="edgeStyle=orthogonalEdgeStyle;rounded=0;orthogonalLoop=1;jettySize=auto;html=1;exitX=0.5;exitY=1;exitDx=0;exitDy=0;entryX=0.5;entryY=0;entryDx=0;entryDy=0;" parent="1" source="Gakhrwl31I4esTH9U-xx-59" target="jbjfD_LgMQHEfF6mrriQ-21" edge="1">
          <mxGeometry relative="1" as="geometry">
            <Array as="points">
              <mxPoint x="858" y="350" />
              <mxPoint x="995" y="350" />
            </Array>
          </mxGeometry>
        </mxCell>
        <mxCell id="Gakhrwl31I4esTH9U-xx-61" style="edgeStyle=orthogonalEdgeStyle;rounded=0;orthogonalLoop=1;jettySize=auto;html=1;exitX=0.5;exitY=0;exitDx=0;exitDy=0;entryX=0.25;entryY=1;entryDx=0;entryDy=0;" parent="1" source="Gakhrwl31I4esTH9U-xx-59" target="Gakhrwl31I4esTH9U-xx-2" edge="1">
          <mxGeometry relative="1" as="geometry">
            <mxPoint x="840" y="70" as="targetPoint" />
          </mxGeometry>
        </mxCell>
        <mxCell id="Gakhrwl31I4esTH9U-xx-59" value="Registered_At" style="shape=rhombus;perimeter=rhombusPerimeter;whiteSpace=wrap;html=1;align=center;" parent="1" vertex="1">
          <mxGeometry x="796.5" y="235" width="120" height="70" as="geometry" />
        </mxCell>
        <mxCell id="Gakhrwl31I4esTH9U-xx-62" value="&lt;font style=&quot;font-size: 14px;&quot;&gt;locationName&lt;/font&gt;" style="ellipse;whiteSpace=wrap;html=1;align=center;" parent="1" vertex="1">
          <mxGeometry x="712.5" y="450" width="107.5" height="50" as="geometry" />
        </mxCell>
        <mxCell id="Gakhrwl31I4esTH9U-xx-63" value="&lt;font style=&quot;font-size: 14px;&quot;&gt;&lt;u&gt;&lt;b&gt;postalCode&lt;/b&gt;&lt;/u&gt;&lt;/font&gt;" style="ellipse;whiteSpace=wrap;html=1;align=center;" parent="1" vertex="1">
          <mxGeometry x="250" y="-145" width="85" height="50" as="geometry" />
        </mxCell>
        <mxCell id="Gakhrwl31I4esTH9U-xx-64" value="&lt;font style=&quot;font-size: 14px;&quot;&gt;province&lt;/font&gt;" style="ellipse;whiteSpace=wrap;html=1;align=center;" parent="1" vertex="1">
          <mxGeometry x="30" y="-145" width="85" height="50" as="geometry" />
        </mxCell>
        <mxCell id="Gakhrwl31I4esTH9U-xx-65" value="&lt;font style=&quot;font-size: 14px;&quot;&gt;city&lt;/font&gt;" style="ellipse;whiteSpace=wrap;html=1;align=center;" parent="1" vertex="1">
          <mxGeometry x="-10" y="-63" width="65" height="50" as="geometry" />
        </mxCell>
        <mxCell id="Gakhrwl31I4esTH9U-xx-66" value="&lt;font style=&quot;font-size: 14px;&quot;&gt;address&lt;/font&gt;" style="ellipse;whiteSpace=wrap;html=1;align=center;" parent="1" vertex="1">
          <mxGeometry x="10" y="20" width="83" height="54" as="geometry" />
        </mxCell>
        <mxCell id="Gakhrwl31I4esTH9U-xx-67" value="&lt;font style=&quot;font-size: 14px;&quot;&gt;phoneNumber&lt;/font&gt;" style="ellipse;whiteSpace=wrap;html=1;align=center;" parent="1" vertex="1">
          <mxGeometry x="970" y="584" width="120" height="50" as="geometry" />
        </mxCell>
        <mxCell id="Gakhrwl31I4esTH9U-xx-68" value="&lt;font style=&quot;font-size: 14px;&quot;&gt;capacity&lt;/font&gt;" style="ellipse;whiteSpace=wrap;html=1;align=center;" parent="1" vertex="1">
          <mxGeometry x="770" y="650" width="85" height="50" as="geometry" />
        </mxCell>
        <mxCell id="Gakhrwl31I4esTH9U-xx-70" value="&lt;font style=&quot;font-size: 14px;&quot;&gt;webAddress&lt;/font&gt;" style="ellipse;whiteSpace=wrap;html=1;align=center;" parent="1" vertex="1">
          <mxGeometry x="962.88" y="640" width="100" height="50" as="geometry" />
        </mxCell>
        <mxCell id="Gakhrwl31I4esTH9U-xx-71" value="&lt;span style=&quot;font-size: 14px;&quot;&gt;&lt;u&gt;&lt;b&gt;locationID&lt;/b&gt;&lt;/u&gt;&lt;/span&gt;" style="ellipse;whiteSpace=wrap;html=1;align=center;" parent="1" vertex="1">
          <mxGeometry x="867.5" y="650" width="85" height="50" as="geometry" />
        </mxCell>
        <mxCell id="Gakhrwl31I4esTH9U-xx-72" value="&lt;font style=&quot;font-size: 18px;&quot;&gt;Team&lt;/font&gt;" style="rounded=0;whiteSpace=wrap;html=1;" parent="1" vertex="1">
          <mxGeometry x="1992.75" y="250" width="100" height="60" as="geometry" />
        </mxCell>
        <mxCell id="Gakhrwl31I4esTH9U-xx-73" value="&lt;font style=&quot;font-size: 14px;&quot;&gt;gender&lt;/font&gt;" style="ellipse;whiteSpace=wrap;html=1;align=center;" parent="1" vertex="1">
          <mxGeometry x="1452.5" y="-160" width="85" height="50" as="geometry" />
        </mxCell>
        <mxCell id="Gakhrwl31I4esTH9U-xx-74" value="&lt;span style=&quot;font-size: 14px;&quot;&gt;&lt;u&gt;&lt;b&gt;startDate&lt;/b&gt;&lt;/u&gt;&lt;/span&gt;" style="ellipse;whiteSpace=wrap;html=1;align=center;" parent="1" vertex="1">
          <mxGeometry x="712.5" y="195" width="90" height="50" as="geometry" />
        </mxCell>
        <mxCell id="Gakhrwl31I4esTH9U-xx-75" value="&lt;span style=&quot;font-size: 14px;&quot;&gt;endDate&lt;/span&gt;" style="ellipse;whiteSpace=wrap;html=1;align=center;" parent="1" vertex="1">
          <mxGeometry x="712.5" y="290" width="90" height="50" as="geometry" />
        </mxCell>
        <mxCell id="Gakhrwl31I4esTH9U-xx-76" value="&lt;font style=&quot;font-size: 14px;&quot;&gt;&lt;u&gt;&lt;b&gt;teamName&lt;/b&gt;&lt;/u&gt;&lt;/font&gt;" style="ellipse;whiteSpace=wrap;html=1;align=center;" parent="1" vertex="1">
          <mxGeometry x="2065" y="181" width="85" height="50" as="geometry" />
        </mxCell>
        <mxCell id="Gakhrwl31I4esTH9U-xx-85" style="edgeStyle=orthogonalEdgeStyle;rounded=0;orthogonalLoop=1;jettySize=auto;html=1;exitX=0.5;exitY=1;exitDx=0;exitDy=0;entryX=1;entryY=0.25;entryDx=0;entryDy=0;" parent="1" source="Gakhrwl31I4esTH9U-xx-82" target="jbjfD_LgMQHEfF6mrriQ-21" edge="1">
          <mxGeometry relative="1" as="geometry">
            <mxPoint x="1210" y="570" as="targetPoint" />
          </mxGeometry>
        </mxCell>
        <mxCell id="Gakhrwl31I4esTH9U-xx-82" value="Formed_At" style="shape=rhombus;perimeter=rhombusPerimeter;whiteSpace=wrap;html=1;align=center;" parent="1" vertex="1">
          <mxGeometry x="1590" y="385" width="100" height="80" as="geometry" />
        </mxCell>
        <mxCell id="Gakhrwl31I4esTH9U-xx-92" value="&lt;span style=&quot;font-size: 14px;&quot;&gt;&lt;b&gt;&lt;u&gt;formationDateTime&lt;/u&gt;&lt;/b&gt;&lt;/span&gt;" style="ellipse;whiteSpace=wrap;html=1;align=center;" parent="1" vertex="1">
          <mxGeometry x="1748.5" y="115" width="141.5" height="50" as="geometry" />
        </mxCell>
        <mxCell id="Gakhrwl31I4esTH9U-xx-112" value="&lt;font style=&quot;font-size: 18px;&quot;&gt;Sessions&lt;/font&gt;" style="rounded=0;whiteSpace=wrap;html=1;" parent="1" vertex="1">
          <mxGeometry x="1988" y="541.5" width="110" height="60" as="geometry" />
        </mxCell>
        <mxCell id="Gakhrwl31I4esTH9U-xx-113" value="&lt;span style=&quot;font-size: 14px;&quot;&gt;sessionType&lt;/span&gt;" style="ellipse;whiteSpace=wrap;html=1;align=center;" parent="1" vertex="1">
          <mxGeometry x="2083" y="465" width="100" height="50" as="geometry" />
        </mxCell>
        <mxCell id="Gakhrwl31I4esTH9U-xx-114" value="&lt;span style=&quot;font-size: 14px;&quot;&gt;team1Score&lt;/span&gt;" style="ellipse;whiteSpace=wrap;html=1;align=center;" parent="1" vertex="1">
          <mxGeometry x="2142.25" y="536.5" width="100" height="50" as="geometry" />
        </mxCell>
        <mxCell id="Gakhrwl31I4esTH9U-xx-120" value="&lt;span style=&quot;font-size: 14px;&quot;&gt;team2Score&lt;/span&gt;" style="ellipse;whiteSpace=wrap;html=1;align=center;" parent="1" vertex="1">
          <mxGeometry x="2085.5" y="634" width="100" height="50" as="geometry" />
        </mxCell>
        <mxCell id="Gakhrwl31I4esTH9U-xx-123" value="&lt;span style=&quot;font-size: 14px;&quot;&gt;&lt;u&gt;&lt;b&gt;sessionNum&lt;/b&gt;&lt;/u&gt;&lt;/span&gt;" style="ellipse;whiteSpace=wrap;html=1;align=center;" parent="1" vertex="1">
          <mxGeometry x="1888" y="474.5" width="100" height="50" as="geometry" />
        </mxCell>
        <mxCell id="Gakhrwl31I4esTH9U-xx-134" value="" style="endArrow=none;html=1;rounded=0;entryX=0;entryY=0.25;entryDx=0;entryDy=0;exitX=1;exitY=0.5;exitDx=0;exitDy=0;" parent="1" source="Gakhrwl31I4esTH9U-xx-132" target="Gakhrwl31I4esTH9U-xx-72" edge="1">
          <mxGeometry width="50" height="50" relative="1" as="geometry">
            <mxPoint x="1530" y="310" as="sourcePoint" />
            <mxPoint x="1580" y="260" as="targetPoint" />
            <Array as="points">
              <mxPoint x="1820" y="201" />
              <mxPoint x="1820" y="266" />
            </Array>
          </mxGeometry>
        </mxCell>
        <mxCell id="Gakhrwl31I4esTH9U-xx-136" value="&lt;span style=&quot;font-size: 14px;&quot;&gt;&lt;u&gt;startDate&lt;/u&gt;&lt;/span&gt;" style="ellipse;whiteSpace=wrap;html=1;align=center;" parent="1" vertex="1">
          <mxGeometry x="565" y="305.5" width="90" height="50" as="geometry" />
        </mxCell>
        <mxCell id="Gakhrwl31I4esTH9U-xx-137" value="&lt;span style=&quot;font-size: 14px;&quot;&gt;endDate&lt;/span&gt;" style="ellipse;whiteSpace=wrap;html=1;align=center;" parent="1" vertex="1">
          <mxGeometry x="565" y="416.5" width="90" height="50" as="geometry" />
        </mxCell>
        <mxCell id="Gakhrwl31I4esTH9U-xx-138" value="&lt;font style=&quot;font-size: 14px;&quot;&gt;gender&lt;/font&gt;" style="ellipse;whiteSpace=wrap;html=1;align=center;" parent="1" vertex="1">
          <mxGeometry x="1947.75" y="186" width="85" height="50" as="geometry" />
        </mxCell>
        <mxCell id="Gakhrwl31I4esTH9U-xx-153" value="" style="endArrow=none;html=1;rounded=0;entryX=0.5;entryY=1;entryDx=0;entryDy=0;exitX=0.75;exitY=0;exitDx=0;exitDy=0;" parent="1" source="Gakhrwl31I4esTH9U-xx-72" target="Gakhrwl31I4esTH9U-xx-76" edge="1">
          <mxGeometry width="50" height="50" relative="1" as="geometry">
            <mxPoint x="2345" y="-14" as="sourcePoint" />
            <mxPoint x="2295" y="1" as="targetPoint" />
          </mxGeometry>
        </mxCell>
        <mxCell id="Gakhrwl31I4esTH9U-xx-154" value="" style="endArrow=none;html=1;rounded=0;entryX=0.5;entryY=1;entryDx=0;entryDy=0;exitX=0.25;exitY=0;exitDx=0;exitDy=0;" parent="1" source="Gakhrwl31I4esTH9U-xx-72" target="Gakhrwl31I4esTH9U-xx-138" edge="1">
          <mxGeometry width="50" height="50" relative="1" as="geometry">
            <mxPoint x="2095" y="206" as="sourcePoint" />
            <mxPoint x="2118" y="176" as="targetPoint" />
          </mxGeometry>
        </mxCell>
        <mxCell id="Gakhrwl31I4esTH9U-xx-158" value="" style="endArrow=none;html=1;rounded=0;entryX=0.5;entryY=1;entryDx=0;entryDy=0;exitX=1;exitY=0;exitDx=0;exitDy=0;" parent="1" source="Gakhrwl31I4esTH9U-xx-132" target="Gakhrwl31I4esTH9U-xx-92" edge="1">
          <mxGeometry width="50" height="50" relative="1" as="geometry">
            <mxPoint x="1844" y="106" as="sourcePoint" />
            <mxPoint x="1905" y="69" as="targetPoint" />
          </mxGeometry>
        </mxCell>
        <mxCell id="Gakhrwl31I4esTH9U-xx-159" value="" style="endArrow=none;html=1;rounded=0;entryX=0;entryY=0.5;entryDx=0;entryDy=0;exitX=1;exitY=0.5;exitDx=0;exitDy=0;" parent="1" source="Gakhrwl31I4esTH9U-xx-3" target="Gakhrwl31I4esTH9U-xx-40" edge="1">
          <mxGeometry width="50" height="50" relative="1" as="geometry">
            <mxPoint x="1901" y="116" as="sourcePoint" />
            <mxPoint x="1962" y="79" as="targetPoint" />
          </mxGeometry>
        </mxCell>
        <mxCell id="Gakhrwl31I4esTH9U-xx-161" value="" style="endArrow=none;html=1;rounded=0;entryX=1;entryY=1;entryDx=0;entryDy=0;exitX=0.25;exitY=0;exitDx=0;exitDy=0;" parent="1" source="Gakhrwl31I4esTH9U-xx-3" target="Gakhrwl31I4esTH9U-xx-73" edge="1">
          <mxGeometry width="50" height="50" relative="1" as="geometry">
            <mxPoint x="1627" y="-70" as="sourcePoint" />
            <mxPoint x="1680" y="-81" as="targetPoint" />
          </mxGeometry>
        </mxCell>
        <mxCell id="Gakhrwl31I4esTH9U-xx-175" value="" style="endArrow=none;html=1;rounded=0;entryX=1;entryY=0.5;entryDx=0;entryDy=0;exitX=0;exitY=0.75;exitDx=0;exitDy=0;" parent="1" source="Gakhrwl31I4esTH9U-xx-1" target="Gakhrwl31I4esTH9U-xx-32" edge="1">
          <mxGeometry width="50" height="50" relative="1" as="geometry">
            <mxPoint x="688.25" y="-186" as="sourcePoint" />
            <mxPoint x="1085.25" y="42" as="targetPoint" />
          </mxGeometry>
        </mxCell>
        <mxCell id="Gakhrwl31I4esTH9U-xx-178" value="" style="endArrow=none;html=1;rounded=0;exitX=1;exitY=1;exitDx=0;exitDy=0;entryX=0;entryY=0;entryDx=0;entryDy=0;" parent="1" source="Gakhrwl31I4esTH9U-xx-74" target="Gakhrwl31I4esTH9U-xx-59" edge="1">
          <mxGeometry width="50" height="50" relative="1" as="geometry">
            <mxPoint x="950" y="240" as="sourcePoint" />
            <mxPoint x="1000" y="190" as="targetPoint" />
          </mxGeometry>
        </mxCell>
        <mxCell id="Gakhrwl31I4esTH9U-xx-180" value="" style="endArrow=none;html=1;rounded=0;exitX=1;exitY=0;exitDx=0;exitDy=0;entryX=0;entryY=1;entryDx=0;entryDy=0;" parent="1" source="Gakhrwl31I4esTH9U-xx-75" target="Gakhrwl31I4esTH9U-xx-59" edge="1">
          <mxGeometry width="50" height="50" relative="1" as="geometry">
            <mxPoint x="762" y="250" as="sourcePoint" />
            <mxPoint x="838" y="263" as="targetPoint" />
          </mxGeometry>
        </mxCell>
        <mxCell id="Gakhrwl31I4esTH9U-xx-182" value="" style="endArrow=none;html=1;rounded=0;exitX=0.25;exitY=0;exitDx=0;exitDy=0;entryX=0.5;entryY=1;entryDx=0;entryDy=0;" parent="1" source="jbjfD_LgMQHEfF6mrriQ-21" target="Gakhrwl31I4esTH9U-xx-62" edge="1">
          <mxGeometry width="50" height="50" relative="1" as="geometry">
            <mxPoint x="693.75" y="345" as="sourcePoint" />
            <mxPoint x="709.75" y="316" as="targetPoint" />
          </mxGeometry>
        </mxCell>
        <mxCell id="Gakhrwl31I4esTH9U-xx-184" value="" style="endArrow=none;html=1;rounded=0;exitX=0.75;exitY=1;exitDx=0;exitDy=0;entryX=0.5;entryY=0;entryDx=0;entryDy=0;" parent="1" source="jbjfD_LgMQHEfF6mrriQ-21" target="Gakhrwl31I4esTH9U-xx-71" edge="1">
          <mxGeometry width="50" height="50" relative="1" as="geometry">
            <mxPoint x="846.75" y="560" as="sourcePoint" />
            <mxPoint x="835.75" y="520" as="targetPoint" />
          </mxGeometry>
        </mxCell>
        <mxCell id="Gakhrwl31I4esTH9U-xx-188" value="" style="endArrow=none;html=1;rounded=0;exitX=1;exitY=0.5;exitDx=0;exitDy=0;entryX=0;entryY=0;entryDx=0;entryDy=0;" parent="1" source="jbjfD_LgMQHEfF6mrriQ-21" target="Gakhrwl31I4esTH9U-xx-67" edge="1">
          <mxGeometry width="50" height="50" relative="1" as="geometry">
            <mxPoint x="866.75" y="580" as="sourcePoint" />
            <mxPoint x="855.75" y="540" as="targetPoint" />
          </mxGeometry>
        </mxCell>
        <mxCell id="Gakhrwl31I4esTH9U-xx-190" value="" style="endArrow=none;html=1;rounded=0;exitX=0.5;exitY=1;exitDx=0;exitDy=0;entryX=0.5;entryY=0;entryDx=0;entryDy=0;" parent="1" source="jbjfD_LgMQHEfF6mrriQ-21" target="Gakhrwl31I4esTH9U-xx-68" edge="1">
          <mxGeometry width="50" height="50" relative="1" as="geometry">
            <mxPoint x="806.75" y="580" as="sourcePoint" />
            <mxPoint x="745.75" y="532" as="targetPoint" />
          </mxGeometry>
        </mxCell>
        <mxCell id="Gakhrwl31I4esTH9U-xx-196" value="" style="endArrow=none;html=1;rounded=0;exitX=0;exitY=1;exitDx=0;exitDy=0;entryX=1;entryY=0;entryDx=0;entryDy=0;" parent="1" source="Gakhrwl31I4esTH9U-xx-136" target="jbjfD_LgMQHEfF6mrriQ-40" edge="1">
          <mxGeometry width="50" height="50" relative="1" as="geometry">
            <mxPoint x="979.75" y="140.25" as="sourcePoint" />
            <mxPoint x="444.75" y="371.25" as="targetPoint" />
          </mxGeometry>
        </mxCell>
        <mxCell id="Gakhrwl31I4esTH9U-xx-197" value="" style="endArrow=none;html=1;rounded=0;exitX=0;exitY=0;exitDx=0;exitDy=0;entryX=1;entryY=1;entryDx=0;entryDy=0;" parent="1" source="Gakhrwl31I4esTH9U-xx-137" target="jbjfD_LgMQHEfF6mrriQ-40" edge="1">
          <mxGeometry width="50" height="50" relative="1" as="geometry">
            <mxPoint x="485.75000000000006" y="396.25" as="sourcePoint" />
            <mxPoint x="462.06980515339455" y="425.5723304703365" as="targetPoint" />
          </mxGeometry>
        </mxCell>
        <mxCell id="Gakhrwl31I4esTH9U-xx-200" value="" style="endArrow=none;html=1;rounded=0;entryX=0;entryY=0;entryDx=0;entryDy=0;exitX=1;exitY=0.5;exitDx=0;exitDy=0;" parent="1" source="Gakhrwl31I4esTH9U-xx-45" target="jbjfD_LgMQHEfF6mrriQ-39" edge="1">
          <mxGeometry width="50" height="50" relative="1" as="geometry">
            <mxPoint x="370" y="310.5" as="sourcePoint" />
            <mxPoint x="370" y="340.5" as="targetPoint" />
          </mxGeometry>
        </mxCell>
        <mxCell id="Gakhrwl31I4esTH9U-xx-201" value="" style="endArrow=none;html=1;rounded=0;exitX=0;exitY=1;exitDx=0;exitDy=0;entryX=1;entryY=0;entryDx=0;entryDy=0;" parent="1" source="jbjfD_LgMQHEfF6mrriQ-39" target="Gakhrwl31I4esTH9U-xx-46" edge="1">
          <mxGeometry width="50" height="50" relative="1" as="geometry">
            <mxPoint x="450" y="325.5" as="sourcePoint" />
            <mxPoint x="490" y="275.5" as="targetPoint" />
          </mxGeometry>
        </mxCell>
        <mxCell id="Gakhrwl31I4esTH9U-xx-223" value="" style="endArrow=none;html=1;rounded=0;exitX=0;exitY=0.5;exitDx=0;exitDy=0;entryX=1;entryY=1;entryDx=0;entryDy=0;" parent="1" source="Gakhrwl31I4esTH9U-xx-22" target="Gakhrwl31I4esTH9U-xx-1" edge="1">
          <mxGeometry width="50" height="50" relative="1" as="geometry">
            <mxPoint x="868" y="-346" as="sourcePoint" />
            <mxPoint x="819" y="-376" as="targetPoint" />
          </mxGeometry>
        </mxCell>
        <mxCell id="Gakhrwl31I4esTH9U-xx-224" value="" style="endArrow=none;html=1;rounded=0;exitX=0;exitY=0.5;exitDx=0;exitDy=0;entryX=1;entryY=0.75;entryDx=0;entryDy=0;" parent="1" source="Gakhrwl31I4esTH9U-xx-30" target="Gakhrwl31I4esTH9U-xx-1" edge="1">
          <mxGeometry width="50" height="50" relative="1" as="geometry">
            <mxPoint x="868" y="-376" as="sourcePoint" />
            <mxPoint x="819" y="-376" as="targetPoint" />
          </mxGeometry>
        </mxCell>
        <mxCell id="Gakhrwl31I4esTH9U-xx-225" value="" style="endArrow=none;html=1;rounded=0;exitX=0;exitY=0.5;exitDx=0;exitDy=0;entryX=1;entryY=0.25;entryDx=0;entryDy=0;" parent="1" source="Gakhrwl31I4esTH9U-xx-24" target="Gakhrwl31I4esTH9U-xx-1" edge="1">
          <mxGeometry width="50" height="50" relative="1" as="geometry">
            <mxPoint x="878" y="-366" as="sourcePoint" />
            <mxPoint x="829" y="-366" as="targetPoint" />
          </mxGeometry>
        </mxCell>
        <mxCell id="Gakhrwl31I4esTH9U-xx-226" value="" style="endArrow=none;html=1;rounded=0;exitX=0.5;exitY=1;exitDx=0;exitDy=0;entryX=1;entryY=0;entryDx=0;entryDy=0;" parent="1" source="Gakhrwl31I4esTH9U-xx-25" target="Gakhrwl31I4esTH9U-xx-1" edge="1">
          <mxGeometry width="50" height="50" relative="1" as="geometry">
            <mxPoint x="851" y="-458" as="sourcePoint" />
            <mxPoint x="819" y="-376" as="targetPoint" />
          </mxGeometry>
        </mxCell>
        <mxCell id="Gakhrwl31I4esTH9U-xx-228" value="" style="endArrow=none;html=1;rounded=0;exitX=0.5;exitY=1;exitDx=0;exitDy=0;entryX=0.75;entryY=0;entryDx=0;entryDy=0;" parent="1" source="Gakhrwl31I4esTH9U-xx-21" target="Gakhrwl31I4esTH9U-xx-1" edge="1">
          <mxGeometry width="50" height="50" relative="1" as="geometry">
            <mxPoint x="840" y="-486" as="sourcePoint" />
            <mxPoint x="799" y="-396" as="targetPoint" />
          </mxGeometry>
        </mxCell>
        <mxCell id="Gakhrwl31I4esTH9U-xx-229" value="" style="endArrow=none;html=1;rounded=0;exitX=1;exitY=1;exitDx=0;exitDy=0;entryX=0.5;entryY=0;entryDx=0;entryDy=0;" parent="1" source="Gakhrwl31I4esTH9U-xx-29" target="Gakhrwl31I4esTH9U-xx-1" edge="1">
          <mxGeometry width="50" height="50" relative="1" as="geometry">
            <mxPoint x="727" y="-492" as="sourcePoint" />
            <mxPoint x="759" y="-406" as="targetPoint" />
          </mxGeometry>
        </mxCell>
        <mxCell id="Gakhrwl31I4esTH9U-xx-232" value="" style="endArrow=none;html=1;rounded=0;exitX=1;exitY=1;exitDx=0;exitDy=0;entryX=0;entryY=0;entryDx=0;entryDy=0;" parent="1" source="Gakhrwl31I4esTH9U-xx-20" target="Gakhrwl31I4esTH9U-xx-1" edge="1">
          <mxGeometry width="50" height="50" relative="1" as="geometry">
            <mxPoint x="657" y="-381" as="sourcePoint" />
            <mxPoint x="699" y="-376" as="targetPoint" />
          </mxGeometry>
        </mxCell>
        <mxCell id="Gakhrwl31I4esTH9U-xx-237" value="" style="endArrow=none;html=1;rounded=0;exitX=0.5;exitY=1;exitDx=0;exitDy=0;entryX=0.5;entryY=0;entryDx=0;entryDy=0;" parent="1" source="Gakhrwl31I4esTH9U-xx-117" target="Gakhrwl31I4esTH9U-xx-112" edge="1">
          <mxGeometry width="50" height="50" relative="1" as="geometry">
            <mxPoint x="2133" y="270" as="sourcePoint" />
            <mxPoint x="2363" y="25" as="targetPoint" />
          </mxGeometry>
        </mxCell>
        <mxCell id="Gakhrwl31I4esTH9U-xx-132" value="Apart_Of" style="shape=rhombus;perimeter=rhombusPerimeter;whiteSpace=wrap;html=1;align=center;" parent="1" vertex="1">
          <mxGeometry x="1693" y="166" width="82" height="70" as="geometry" />
        </mxCell>
        <mxCell id="Gakhrwl31I4esTH9U-xx-295" value="" style="rounded=0;whiteSpace=wrap;html=1;strokeColor=none;rotation=-90;" parent="1" vertex="1">
          <mxGeometry x="1726.5" y="285.5" width="32" height="20" as="geometry" />
        </mxCell>
        <mxCell id="Gakhrwl31I4esTH9U-xx-91" value="" style="endArrow=none;html=1;rounded=0;entryX=0;entryY=0.75;entryDx=0;entryDy=0;exitX=0.5;exitY=0;exitDx=0;exitDy=0;" parent="1" source="Gakhrwl31I4esTH9U-xx-82" target="Gakhrwl31I4esTH9U-xx-72" edge="1">
          <mxGeometry width="50" height="50" relative="1" as="geometry">
            <mxPoint x="1970" y="-10" as="sourcePoint" />
            <mxPoint x="1970" y="190" as="targetPoint" />
            <Array as="points">
              <mxPoint x="1640" y="296" />
            </Array>
          </mxGeometry>
        </mxCell>
        <mxCell id="Gakhrwl31I4esTH9U-xx-297" value="&lt;font style=&quot;font-size: 18px;&quot;&gt;Email&lt;/font&gt;" style="rounded=0;whiteSpace=wrap;html=1;" parent="1" vertex="1">
          <mxGeometry x="1987.75" y="-82.5" width="110" height="60" as="geometry" />
        </mxCell>
        <mxCell id="tskmYVgzQg81aDT9iDg6-1" style="edgeStyle=orthogonalEdgeStyle;rounded=0;orthogonalLoop=1;jettySize=auto;html=1;exitX=0.5;exitY=0;exitDx=0;exitDy=0;entryX=0.5;entryY=1;entryDx=0;entryDy=0;" parent="1" source="Gakhrwl31I4esTH9U-xx-327" target="Gakhrwl31I4esTH9U-xx-297" edge="1">
          <mxGeometry relative="1" as="geometry" />
        </mxCell>
        <mxCell id="tskmYVgzQg81aDT9iDg6-2" style="edgeStyle=orthogonalEdgeStyle;rounded=0;orthogonalLoop=1;jettySize=auto;html=1;exitX=0.5;exitY=1;exitDx=0;exitDy=0;entryX=0.5;entryY=0;entryDx=0;entryDy=0;" parent="1" source="Gakhrwl31I4esTH9U-xx-327" target="Gakhrwl31I4esTH9U-xx-72" edge="1">
          <mxGeometry relative="1" as="geometry" />
        </mxCell>
        <mxCell id="Gakhrwl31I4esTH9U-xx-327" value="Informs" style="shape=rhombus;perimeter=rhombusPerimeter;whiteSpace=wrap;html=1;align=center;" parent="1" vertex="1">
          <mxGeometry x="1993" y="60" width="100" height="80" as="geometry" />
        </mxCell>
        <mxCell id="Gakhrwl31I4esTH9U-xx-328" value="&lt;font style=&quot;font-size: 18px;&quot;&gt;EmailLog&lt;/font&gt;" style="rounded=0;whiteSpace=wrap;html=1;" parent="1" vertex="1">
          <mxGeometry x="2319" y="-83" width="110" height="60" as="geometry" />
        </mxCell>
        <mxCell id="Gakhrwl31I4esTH9U-xx-330" value="&lt;span style=&quot;font-size: 14px;&quot;&gt;sessionStartDateTime&lt;/span&gt;" style="ellipse;whiteSpace=wrap;html=1;align=center;" parent="1" vertex="1">
          <mxGeometry x="1871.75" y="634" width="160" height="50" as="geometry" />
        </mxCell>
        <mxCell id="tskmYVgzQg81aDT9iDg6-3" style="edgeStyle=orthogonalEdgeStyle;rounded=0;orthogonalLoop=1;jettySize=auto;html=1;exitX=1;exitY=0.5;exitDx=0;exitDy=0;entryX=0;entryY=0.5;entryDx=0;entryDy=0;" parent="1" source="Gakhrwl31I4esTH9U-xx-333" target="Gakhrwl31I4esTH9U-xx-328" edge="1">
          <mxGeometry relative="1" as="geometry" />
        </mxCell>
        <mxCell id="tskmYVgzQg81aDT9iDg6-4" style="edgeStyle=orthogonalEdgeStyle;rounded=0;orthogonalLoop=1;jettySize=auto;html=1;exitX=0;exitY=0.5;exitDx=0;exitDy=0;entryX=1;entryY=0.5;entryDx=0;entryDy=0;" parent="1" source="Gakhrwl31I4esTH9U-xx-333" target="Gakhrwl31I4esTH9U-xx-297" edge="1">
          <mxGeometry relative="1" as="geometry" />
        </mxCell>
        <mxCell id="Gakhrwl31I4esTH9U-xx-333" value="Records" style="shape=rhombus;perimeter=rhombusPerimeter;whiteSpace=wrap;html=1;align=center;" parent="1" vertex="1">
          <mxGeometry x="2160" y="-93" width="100" height="80" as="geometry" />
        </mxCell>
        <mxCell id="Gakhrwl31I4esTH9U-xx-334" value="&lt;span style=&quot;font-size: 14px;&quot;&gt;sendDate&lt;/span&gt;" style="ellipse;whiteSpace=wrap;html=1;align=center;" parent="1" vertex="1">
          <mxGeometry x="2405" y="-170" width="87" height="50" as="geometry" />
        </mxCell>
        <mxCell id="Gakhrwl31I4esTH9U-xx-335" value="&lt;span style=&quot;font-size: 14px;&quot;&gt;&lt;u&gt;&lt;b&gt;logNumber&lt;/b&gt;&lt;/u&gt;&lt;/span&gt;" style="ellipse;whiteSpace=wrap;html=1;align=center;" parent="1" vertex="1">
          <mxGeometry x="2468.75" y="-126" width="100" height="50" as="geometry" />
        </mxCell>
        <mxCell id="Gakhrwl31I4esTH9U-xx-343" value="&lt;font style=&quot;font-size: 14px;&quot;&gt;sender&lt;/font&gt;" style="ellipse;whiteSpace=wrap;html=1;align=center;" parent="1" vertex="1">
          <mxGeometry x="2467" y="-59" width="80" height="48" as="geometry" />
        </mxCell>
        <mxCell id="Gakhrwl31I4esTH9U-xx-345" value="&lt;span style=&quot;font-size: 14px;&quot;&gt;emailSubject&lt;/span&gt;" style="ellipse;whiteSpace=wrap;html=1;align=center;" parent="1" vertex="1">
          <mxGeometry x="2302" y="-160" width="100" height="50" as="geometry" />
        </mxCell>
        <mxCell id="Gakhrwl31I4esTH9U-xx-346" value="&lt;span style=&quot;font-size: 14px;&quot;&gt;receiver&lt;/span&gt;" style="ellipse;whiteSpace=wrap;html=1;align=center;" parent="1" vertex="1">
          <mxGeometry x="2290" y="-2.5" width="87" height="50" as="geometry" />
        </mxCell>
        <mxCell id="Gakhrwl31I4esTH9U-xx-347" value="&lt;span style=&quot;font-size: 14px;&quot;&gt;emailBody&lt;/span&gt;" style="ellipse;whiteSpace=wrap;html=1;align=center;" parent="1" vertex="1">
          <mxGeometry x="2402" y="-2.5" width="90" height="50" as="geometry" />
        </mxCell>
        <mxCell id="Gakhrwl31I4esTH9U-xx-348" value="&lt;span style=&quot;font-size: 14px;&quot;&gt;&lt;u&gt;&lt;b&gt;emailID&lt;/b&gt;&lt;/u&gt;&lt;/span&gt;" style="ellipse;whiteSpace=wrap;html=1;align=center;" parent="1" vertex="1">
          <mxGeometry x="1900" y="-102" width="73" height="50" as="geometry" />
        </mxCell>
        <mxCell id="Gakhrwl31I4esTH9U-xx-362" value="" style="endArrow=none;html=1;rounded=0;entryX=0.5;entryY=1;entryDx=0;entryDy=0;exitX=0.5;exitY=0;exitDx=0;exitDy=0;" parent="1" source="Gakhrwl31I4esTH9U-xx-132" target="Gakhrwl31I4esTH9U-xx-3" edge="1">
          <mxGeometry width="50" height="50" relative="1" as="geometry">
            <mxPoint x="1690" y="110" as="sourcePoint" />
            <mxPoint x="1740" y="60" as="targetPoint" />
            <Array as="points">
              <mxPoint x="1734" />
              <mxPoint x="1577" />
            </Array>
          </mxGeometry>
        </mxCell>
        <mxCell id="Gakhrwl31I4esTH9U-xx-364" value="&lt;font style=&quot;font-size: 14px;&quot;&gt;type&lt;/font&gt;" style="ellipse;whiteSpace=wrap;html=1;align=center;" parent="1" vertex="1">
          <mxGeometry x="680" y="650" width="65" height="50" as="geometry" />
        </mxCell>
        <mxCell id="Gakhrwl31I4esTH9U-xx-365" value="" style="endArrow=none;html=1;rounded=0;exitX=0.25;exitY=1;exitDx=0;exitDy=0;entryX=1;entryY=0;entryDx=0;entryDy=0;" parent="1" source="jbjfD_LgMQHEfF6mrriQ-21" target="Gakhrwl31I4esTH9U-xx-364" edge="1">
          <mxGeometry width="50" height="50" relative="1" as="geometry">
            <mxPoint x="806.75" y="580" as="sourcePoint" />
            <mxPoint x="742.75" y="580" as="targetPoint" />
          </mxGeometry>
        </mxCell>
        <mxCell id="Gakhrwl31I4esTH9U-xx-369" value="" style="endArrow=none;html=1;rounded=0;exitX=1;exitY=1;exitDx=0;exitDy=0;entryX=0;entryY=0.5;entryDx=0;entryDy=0;" parent="1" source="Gakhrwl31I4esTH9U-xx-348" target="Gakhrwl31I4esTH9U-xx-297" edge="1">
          <mxGeometry width="50" height="50" relative="1" as="geometry">
            <mxPoint x="2140" y="-317.5" as="sourcePoint" />
            <mxPoint x="2190" y="-367.5" as="targetPoint" />
          </mxGeometry>
        </mxCell>
        <mxCell id="Gakhrwl31I4esTH9U-xx-370" value="" style="endArrow=none;html=1;rounded=0;entryX=0.5;entryY=1;entryDx=0;entryDy=0;exitX=1;exitY=0;exitDx=0;exitDy=0;" parent="1" source="Gakhrwl31I4esTH9U-xx-346" target="Gakhrwl31I4esTH9U-xx-328" edge="1">
          <mxGeometry width="50" height="50" relative="1" as="geometry">
            <mxPoint x="1986.75" y="-70" as="sourcePoint" />
            <mxPoint x="2036.75" y="-120" as="targetPoint" />
          </mxGeometry>
        </mxCell>
        <mxCell id="Gakhrwl31I4esTH9U-xx-371" value="" style="endArrow=none;html=1;rounded=0;entryX=0.5;entryY=0;entryDx=0;entryDy=0;exitX=0.5;exitY=1;exitDx=0;exitDy=0;" parent="1" source="Gakhrwl31I4esTH9U-xx-345" target="Gakhrwl31I4esTH9U-xx-328" edge="1">
          <mxGeometry width="50" height="50" relative="1" as="geometry">
            <mxPoint x="1986.75" y="-70" as="sourcePoint" />
            <mxPoint x="2036.75" y="-120" as="targetPoint" />
          </mxGeometry>
        </mxCell>
        <mxCell id="Gakhrwl31I4esTH9U-xx-372" value="" style="endArrow=none;html=1;rounded=0;entryX=0.5;entryY=1;entryDx=0;entryDy=0;exitX=0.75;exitY=0;exitDx=0;exitDy=0;" parent="1" source="Gakhrwl31I4esTH9U-xx-328" target="Gakhrwl31I4esTH9U-xx-334" edge="1">
          <mxGeometry width="50" height="50" relative="1" as="geometry">
            <mxPoint x="1986.75" y="-70" as="sourcePoint" />
            <mxPoint x="2036.75" y="-120" as="targetPoint" />
          </mxGeometry>
        </mxCell>
        <mxCell id="Gakhrwl31I4esTH9U-xx-373" value="" style="endArrow=none;html=1;rounded=0;entryX=0;entryY=1;entryDx=0;entryDy=0;exitX=1;exitY=0.5;exitDx=0;exitDy=0;" parent="1" source="Gakhrwl31I4esTH9U-xx-328" target="Gakhrwl31I4esTH9U-xx-335" edge="1">
          <mxGeometry width="50" height="50" relative="1" as="geometry">
            <mxPoint x="1986.75" y="-70" as="sourcePoint" />
            <mxPoint x="2036.75" y="-120" as="targetPoint" />
          </mxGeometry>
        </mxCell>
        <mxCell id="Gakhrwl31I4esTH9U-xx-374" value="" style="endArrow=none;html=1;rounded=0;entryX=0;entryY=0;entryDx=0;entryDy=0;exitX=1;exitY=0.5;exitDx=0;exitDy=0;" parent="1" source="Gakhrwl31I4esTH9U-xx-328" target="Gakhrwl31I4esTH9U-xx-343" edge="1">
          <mxGeometry width="50" height="50" relative="1" as="geometry">
            <mxPoint x="2434.75" y="-57" as="sourcePoint" />
            <mxPoint x="2492.75" y="-74" as="targetPoint" />
          </mxGeometry>
        </mxCell>
        <mxCell id="Gakhrwl31I4esTH9U-xx-375" value="" style="endArrow=none;html=1;rounded=0;entryX=0;entryY=0;entryDx=0;entryDy=0;exitX=0.75;exitY=1;exitDx=0;exitDy=0;" parent="1" source="Gakhrwl31I4esTH9U-xx-328" target="Gakhrwl31I4esTH9U-xx-347" edge="1">
          <mxGeometry width="50" height="50" relative="1" as="geometry">
            <mxPoint x="2377" y="-20" as="sourcePoint" />
            <mxPoint x="2489.75" y="-43" as="targetPoint" />
          </mxGeometry>
        </mxCell>
        <mxCell id="3o3Khlp93fHvYOxkfCWa-18" value="" style="ellipse;whiteSpace=wrap;html=1;fillColor=none;rotation=90;" parent="1" vertex="1">
          <mxGeometry x="1999.75" y="346" width="85.75" height="16" as="geometry" />
        </mxCell>
        <mxCell id="3o3Khlp93fHvYOxkfCWa-19" value="" style="rounded=0;whiteSpace=wrap;html=1;strokeColor=none;rotation=90;" parent="1" vertex="1">
          <mxGeometry x="2005.5" y="344" width="84.5" height="36" as="geometry" />
        </mxCell>
        <mxCell id="Gakhrwl31I4esTH9U-xx-119" value="" style="endArrow=none;html=1;rounded=0;entryX=0.5;entryY=0;entryDx=0;entryDy=0;exitX=0.5;exitY=1;exitDx=0;exitDy=0;" parent="1" source="Gakhrwl31I4esTH9U-xx-72" target="Gakhrwl31I4esTH9U-xx-117" edge="1">
          <mxGeometry width="50" height="50" relative="1" as="geometry">
            <mxPoint x="2390" y="180" as="sourcePoint" />
            <mxPoint x="2390" y="-10" as="targetPoint" />
          </mxGeometry>
        </mxCell>
        <mxCell id="3o3Khlp93fHvYOxkfCWa-20" value="&lt;span style=&quot;font-size: 14px;&quot;&gt;role&lt;/span&gt;" style="ellipse;whiteSpace=wrap;html=1;align=center;" parent="1" vertex="1">
          <mxGeometry x="1628.5" y="116" width="85" height="50" as="geometry" />
        </mxCell>
        <mxCell id="3o3Khlp93fHvYOxkfCWa-21" value="" style="endArrow=none;html=1;rounded=0;entryX=0.5;entryY=1;entryDx=0;entryDy=0;exitX=0;exitY=0;exitDx=0;exitDy=0;" parent="1" source="Gakhrwl31I4esTH9U-xx-132" target="3o3Khlp93fHvYOxkfCWa-20" edge="1">
          <mxGeometry width="50" height="50" relative="1" as="geometry">
            <mxPoint x="1573.5" y="92" as="sourcePoint" />
            <mxPoint x="1843.5" y="-116.5" as="targetPoint" />
          </mxGeometry>
        </mxCell>
        <mxCell id="Gakhrwl31I4esTH9U-xx-117" value="Plays" style="shape=rhombus;perimeter=rhombusPerimeter;whiteSpace=wrap;html=1;align=center;" parent="1" vertex="1">
          <mxGeometry x="1993" y="385" width="100" height="80" as="geometry" />
        </mxCell>
        <mxCell id="oNP2qV1vk9qxkLpK5DE2-6" value="" style="endArrow=none;html=1;rounded=0;exitX=0.5;exitY=0;exitDx=0;exitDy=0;entryX=0.25;entryY=1;entryDx=0;entryDy=0;" parent="1" source="Gakhrwl31I4esTH9U-xx-330" target="Gakhrwl31I4esTH9U-xx-112" edge="1">
          <mxGeometry width="50" height="50" relative="1" as="geometry">
            <mxPoint x="2023" y="615" as="sourcePoint" />
            <mxPoint x="2073" y="565" as="targetPoint" />
          </mxGeometry>
        </mxCell>
        <mxCell id="oNP2qV1vk9qxkLpK5DE2-7" value="" style="endArrow=none;html=1;rounded=0;entryX=1;entryY=1;entryDx=0;entryDy=0;exitX=0.25;exitY=0;exitDx=0;exitDy=0;" parent="1" source="Gakhrwl31I4esTH9U-xx-112" target="Gakhrwl31I4esTH9U-xx-123" edge="1">
          <mxGeometry width="50" height="50" relative="1" as="geometry">
            <mxPoint x="2023" y="615" as="sourcePoint" />
            <mxPoint x="2073" y="565" as="targetPoint" />
          </mxGeometry>
        </mxCell>
        <mxCell id="oNP2qV1vk9qxkLpK5DE2-8" value="" style="endArrow=none;html=1;rounded=0;entryX=0;entryY=1;entryDx=0;entryDy=0;exitX=0.75;exitY=0;exitDx=0;exitDy=0;" parent="1" source="Gakhrwl31I4esTH9U-xx-112" target="Gakhrwl31I4esTH9U-xx-113" edge="1">
          <mxGeometry width="50" height="50" relative="1" as="geometry">
            <mxPoint x="2023" y="615" as="sourcePoint" />
            <mxPoint x="2073" y="565" as="targetPoint" />
          </mxGeometry>
        </mxCell>
        <mxCell id="oNP2qV1vk9qxkLpK5DE2-11" value="" style="endArrow=none;html=1;rounded=0;exitX=0.5;exitY=0;exitDx=0;exitDy=0;entryX=0.75;entryY=1;entryDx=0;entryDy=0;" parent="1" source="Gakhrwl31I4esTH9U-xx-120" target="Gakhrwl31I4esTH9U-xx-112" edge="1">
          <mxGeometry width="50" height="50" relative="1" as="geometry">
            <mxPoint x="2023" y="615" as="sourcePoint" />
            <mxPoint x="2073" y="565" as="targetPoint" />
          </mxGeometry>
        </mxCell>
        <mxCell id="oNP2qV1vk9qxkLpK5DE2-12" value="" style="endArrow=none;html=1;rounded=0;entryX=0;entryY=0.5;entryDx=0;entryDy=0;exitX=1;exitY=0.5;exitDx=0;exitDy=0;" parent="1" source="Gakhrwl31I4esTH9U-xx-112" target="Gakhrwl31I4esTH9U-xx-114" edge="1">
          <mxGeometry width="50" height="50" relative="1" as="geometry">
            <mxPoint x="2023" y="615" as="sourcePoint" />
            <mxPoint x="2073" y="565" as="targetPoint" />
          </mxGeometry>
        </mxCell>
        <mxCell id="oNP2qV1vk9qxkLpK5DE2-16" value="&lt;span style=&quot;font-size: 14px;&quot;&gt;locationID&lt;/span&gt;" style="ellipse;whiteSpace=wrap;html=1;align=center;" parent="1" vertex="1">
          <mxGeometry x="1833" y="547" width="90" height="50" as="geometry" />
        </mxCell>
        <mxCell id="oNP2qV1vk9qxkLpK5DE2-17" value="" style="endArrow=none;html=1;rounded=0;entryX=0;entryY=0.5;entryDx=0;entryDy=0;exitX=1;exitY=0.5;exitDx=0;exitDy=0;" parent="1" source="oNP2qV1vk9qxkLpK5DE2-16" target="Gakhrwl31I4esTH9U-xx-112" edge="1">
          <mxGeometry width="50" height="50" relative="1" as="geometry">
            <mxPoint x="1443" y="575" as="sourcePoint" />
            <mxPoint x="1493" y="525" as="targetPoint" />
          </mxGeometry>
        </mxCell>
        <mxCell id="oNP2qV1vk9qxkLpK5DE2-18" value="&lt;font style=&quot;font-size: 14px;&quot;&gt;role&lt;/font&gt;" style="ellipse;whiteSpace=wrap;html=1;align=center;" parent="1" vertex="1">
          <mxGeometry x="360" y="47.5" width="65" height="50" as="geometry" />
        </mxCell>
        <mxCell id="oNP2qV1vk9qxkLpK5DE2-19" value="" style="endArrow=none;html=1;rounded=0;exitX=1;exitY=1;exitDx=0;exitDy=0;entryX=0.25;entryY=0;entryDx=0;entryDy=0;" parent="1" source="oNP2qV1vk9qxkLpK5DE2-18" target="jbjfD_LgMQHEfF6mrriQ-1" edge="1">
          <mxGeometry width="50" height="50" relative="1" as="geometry">
            <mxPoint x="815" y="59.25" as="sourcePoint" />
            <mxPoint x="455" y="102.75" as="targetPoint" />
          </mxGeometry>
        </mxCell>
        <mxCell id="oNP2qV1vk9qxkLpK5DE2-21" value="" style="endArrow=none;html=1;rounded=0;entryX=0.25;entryY=1;entryDx=0;entryDy=0;exitX=0.5;exitY=0;exitDx=0;exitDy=0;" parent="1" source="jbjfD_LgMQHEfF6mrriQ-39" target="jbjfD_LgMQHEfF6mrriQ-1" edge="1">
          <mxGeometry width="50" height="50" relative="1" as="geometry">
            <mxPoint x="665" y="506.5" as="sourcePoint" />
            <mxPoint x="715" y="456.5" as="targetPoint" />
          </mxGeometry>
        </mxCell>
        <mxCell id="oNP2qV1vk9qxkLpK5DE2-22" value="&lt;font style=&quot;font-size: 14px;&quot;&gt;mandate&lt;/font&gt;" style="ellipse;whiteSpace=wrap;html=1;align=center;" parent="1" vertex="1">
          <mxGeometry x="546" y="47.5" width="80" height="50" as="geometry" />
        </mxCell>
        <mxCell id="oNP2qV1vk9qxkLpK5DE2-23" value="" style="endArrow=none;html=1;rounded=0;exitX=0.75;exitY=0;exitDx=0;exitDy=0;entryX=0;entryY=1;entryDx=0;entryDy=0;" parent="1" source="jbjfD_LgMQHEfF6mrriQ-1" target="oNP2qV1vk9qxkLpK5DE2-22" edge="1">
          <mxGeometry width="50" height="50" relative="1" as="geometry">
            <mxPoint x="426" y="100.5" as="sourcePoint" />
            <mxPoint x="465" y="126.5" as="targetPoint" />
          </mxGeometry>
        </mxCell>
        <mxCell id="Gakhrwl31I4esTH9U-xx-79" style="edgeStyle=orthogonalEdgeStyle;rounded=0;orthogonalLoop=1;jettySize=auto;html=1;exitX=0.5;exitY=1;exitDx=0;exitDy=0;entryX=0;entryY=0;entryDx=0;entryDy=0;" parent="1" source="jbjfD_LgMQHEfF6mrriQ-40" edge="1" target="jbjfD_LgMQHEfF6mrriQ-21">
          <mxGeometry relative="1" as="geometry">
            <mxPoint x="796.44" y="510" as="targetPoint" />
            <Array as="points">
              <mxPoint x="515" y="531" />
            </Array>
            <mxPoint x="514.94" y="404.25" as="sourcePoint" />
          </mxGeometry>
        </mxCell>
        <mxCell id="oNP2qV1vk9qxkLpK5DE2-29" value="&lt;span style=&quot;font-size: 14px;&quot;&gt;teamName&lt;/span&gt;" style="ellipse;whiteSpace=wrap;html=1;align=center;" parent="1" vertex="1">
          <mxGeometry x="1675.25" y="-461" width="90" height="50" as="geometry" />
        </mxCell>
        <mxCell id="oNP2qV1vk9qxkLpK5DE2-30" value="&lt;span style=&quot;font-size: 14px;&quot;&gt;sessionStartDateTime&lt;/span&gt;" style="ellipse;whiteSpace=wrap;html=1;align=center;" parent="1" vertex="1">
          <mxGeometry x="1568.75" y="-411" width="160" height="50" as="geometry" />
        </mxCell>
        <mxCell id="oNP2qV1vk9qxkLpK5DE2-31" value="&lt;span style=&quot;font-size: 14px;&quot;&gt;teamName&lt;/span&gt;" style="ellipse;whiteSpace=wrap;html=1;align=center;" parent="1" vertex="1">
          <mxGeometry x="2031.75" y="-449.5" width="90" height="50" as="geometry" />
        </mxCell>
        <mxCell id="oNP2qV1vk9qxkLpK5DE2-32" value="&lt;span style=&quot;font-size: 14px;&quot;&gt;CMfirstName&lt;/span&gt;" style="ellipse;whiteSpace=wrap;html=1;align=center;" parent="1" vertex="1">
          <mxGeometry x="2181.5" y="-509.5" width="90" height="50" as="geometry" />
        </mxCell>
        <mxCell id="oNP2qV1vk9qxkLpK5DE2-33" value="&lt;span style=&quot;font-size: 14px;&quot;&gt;CMlastName&lt;/span&gt;" style="ellipse;whiteSpace=wrap;html=1;align=center;" parent="1" vertex="1">
          <mxGeometry x="2266.75" y="-534.5" width="90" height="50" as="geometry" />
        </mxCell>
        <mxCell id="oNP2qV1vk9qxkLpK5DE2-34" value="&lt;span style=&quot;font-size: 14px;&quot;&gt;CMrole&lt;/span&gt;" style="ellipse;whiteSpace=wrap;html=1;align=center;" parent="1" vertex="1">
          <mxGeometry x="2312.5" y="-367.5" width="72" height="50" as="geometry" />
        </mxCell>
        <mxCell id="oNP2qV1vk9qxkLpK5DE2-35" value="&lt;span style=&quot;font-size: 14px;&quot;&gt;HCfirstName&lt;/span&gt;" style="ellipse;whiteSpace=wrap;html=1;align=center;" parent="1" vertex="1">
          <mxGeometry x="2052.25" y="-509.5" width="90" height="50" as="geometry" />
        </mxCell>
        <mxCell id="oNP2qV1vk9qxkLpK5DE2-36" value="&lt;span style=&quot;font-size: 14px;&quot;&gt;HClastName&lt;/span&gt;" style="ellipse;whiteSpace=wrap;html=1;align=center;" parent="1" vertex="1">
          <mxGeometry x="2111.75" y="-549.5" width="90" height="50" as="geometry" />
        </mxCell>
        <mxCell id="oNP2qV1vk9qxkLpK5DE2-37" value="&lt;span style=&quot;font-size: 14px;&quot;&gt;HCemail&lt;/span&gt;" style="ellipse;whiteSpace=wrap;html=1;align=center;" parent="1" vertex="1">
          <mxGeometry x="2306.75" y="-480.5" width="90" height="50" as="geometry" />
        </mxCell>
        <mxCell id="oNP2qV1vk9qxkLpK5DE2-38" value="&lt;span style=&quot;font-size: 14px;&quot;&gt;sessionType&lt;/span&gt;" style="ellipse;whiteSpace=wrap;html=1;align=center;" parent="1" vertex="1">
          <mxGeometry x="2324" y="-424.5" width="100" height="50" as="geometry" />
        </mxCell>
        <mxCell id="oNP2qV1vk9qxkLpK5DE2-39" value="&lt;font style=&quot;font-size: 14px;&quot;&gt;address&lt;/font&gt;" style="ellipse;whiteSpace=wrap;html=1;align=center;" parent="1" vertex="1">
          <mxGeometry x="2271.75" y="-314.5" width="85" height="50" as="geometry" />
        </mxCell>
        <mxCell id="oNP2qV1vk9qxkLpK5DE2-40" value="&lt;span style=&quot;font-size: 14px;&quot;&gt;emailID&lt;/span&gt;" style="ellipse;whiteSpace=wrap;html=1;align=center;" parent="1" vertex="1">
          <mxGeometry x="1767.75" y="-478" width="69.5" height="50" as="geometry" />
        </mxCell>
        <mxCell id="oNP2qV1vk9qxkLpK5DE2-41" value="&lt;span style=&quot;font-size: 14px;&quot;&gt;emailID&lt;/span&gt;" style="ellipse;whiteSpace=wrap;html=1;align=center;" parent="1" vertex="1">
          <mxGeometry x="2041.75" y="-394.5" width="70" height="50" as="geometry" />
        </mxCell>
        <mxCell id="oNP2qV1vk9qxkLpK5DE2-42" value="&lt;span style=&quot;font-size: 14px;&quot;&gt;sessionType&lt;/span&gt;" style="ellipse;whiteSpace=wrap;html=1;align=center;" parent="1" vertex="1">
          <mxGeometry x="1643.75" y="-359.5" width="100" height="50" as="geometry" />
        </mxCell>
        <mxCell id="oNP2qV1vk9qxkLpK5DE2-43" value="&lt;font style=&quot;font-size: 14px;&quot;&gt;city&lt;/font&gt;" style="ellipse;whiteSpace=wrap;html=1;align=center;" parent="1" vertex="1">
          <mxGeometry x="1678.75" y="-305.5" width="65" height="50" as="geometry" />
        </mxCell>
        <mxCell id="oNP2qV1vk9qxkLpK5DE2-60" style="edgeStyle=orthogonalEdgeStyle;rounded=0;orthogonalLoop=1;jettySize=auto;html=1;entryX=0.5;entryY=0;entryDx=0;entryDy=0;exitX=0.5;exitY=1;exitDx=0;exitDy=0;" parent="1" source="oNP2qV1vk9qxkLpK5DE2-61" target="Gakhrwl31I4esTH9U-xx-297" edge="1">
          <mxGeometry relative="1" as="geometry">
            <mxPoint x="2043" y="-170" as="sourcePoint" />
          </mxGeometry>
        </mxCell>
        <mxCell id="oNP2qV1vk9qxkLpK5DE2-45" value="" style="endArrow=none;html=1;rounded=0;entryX=0;entryY=0;entryDx=0;entryDy=0;exitX=0.75;exitY=1;exitDx=0;exitDy=0;" parent="1" target="oNP2qV1vk9qxkLpK5DE2-39" edge="1">
          <mxGeometry width="50" height="50" relative="1" as="geometry">
            <mxPoint x="2249" y="-339.5" as="sourcePoint" />
            <mxPoint x="2261.5" y="-184.5" as="targetPoint" />
          </mxGeometry>
        </mxCell>
        <mxCell id="oNP2qV1vk9qxkLpK5DE2-46" value="" style="endArrow=none;html=1;rounded=0;entryX=0;entryY=0.5;entryDx=0;entryDy=0;exitX=1;exitY=0.75;exitDx=0;exitDy=0;" parent="1" target="oNP2qV1vk9qxkLpK5DE2-34" edge="1">
          <mxGeometry width="50" height="50" relative="1" as="geometry">
            <mxPoint x="2281.5" y="-354.5" as="sourcePoint" />
            <mxPoint x="2294.5" y="-297.5" as="targetPoint" />
          </mxGeometry>
        </mxCell>
        <mxCell id="oNP2qV1vk9qxkLpK5DE2-47" value="" style="endArrow=none;html=1;rounded=0;entryX=0;entryY=0.5;entryDx=0;entryDy=0;exitX=1;exitY=0.25;exitDx=0;exitDy=0;" parent="1" edge="1">
          <mxGeometry width="50" height="50" relative="1" as="geometry">
            <mxPoint x="2281.5" y="-384.5" as="sourcePoint" />
            <mxPoint x="2325" y="-399.4999999999998" as="targetPoint" />
          </mxGeometry>
        </mxCell>
        <mxCell id="oNP2qV1vk9qxkLpK5DE2-48" value="" style="endArrow=none;html=1;rounded=0;entryX=0;entryY=1;entryDx=0;entryDy=0;exitX=0.75;exitY=0;exitDx=0;exitDy=0;" parent="1" target="oNP2qV1vk9qxkLpK5DE2-37" edge="1">
          <mxGeometry width="50" height="50" relative="1" as="geometry">
            <mxPoint x="2249" y="-399.5" as="sourcePoint" />
            <mxPoint x="2335.5" y="-389.5" as="targetPoint" />
          </mxGeometry>
        </mxCell>
        <mxCell id="oNP2qV1vk9qxkLpK5DE2-49" value="" style="endArrow=none;html=1;rounded=0;entryX=0.5;entryY=1;entryDx=0;entryDy=0;exitX=0.75;exitY=0;exitDx=0;exitDy=0;" parent="1" target="oNP2qV1vk9qxkLpK5DE2-33" edge="1">
          <mxGeometry width="50" height="50" relative="1" as="geometry">
            <mxPoint x="2249" y="-399.5" as="sourcePoint" />
            <mxPoint x="2261.5" y="-184.5" as="targetPoint" />
          </mxGeometry>
        </mxCell>
        <mxCell id="oNP2qV1vk9qxkLpK5DE2-50" value="" style="endArrow=none;html=1;rounded=0;entryX=0.5;entryY=1;entryDx=0;entryDy=0;exitX=0.5;exitY=0;exitDx=0;exitDy=0;" parent="1" target="oNP2qV1vk9qxkLpK5DE2-32" edge="1">
          <mxGeometry width="50" height="50" relative="1" as="geometry">
            <mxPoint x="2216.5" y="-399.5" as="sourcePoint" />
            <mxPoint x="2261.5" y="-184.5" as="targetPoint" />
          </mxGeometry>
        </mxCell>
        <mxCell id="oNP2qV1vk9qxkLpK5DE2-51" value="" style="endArrow=none;html=1;rounded=0;entryX=0.5;entryY=1;entryDx=0;entryDy=0;exitX=0.25;exitY=0;exitDx=0;exitDy=0;" parent="1" target="oNP2qV1vk9qxkLpK5DE2-36" edge="1">
          <mxGeometry width="50" height="50" relative="1" as="geometry">
            <mxPoint x="2184" y="-399.5" as="sourcePoint" />
            <mxPoint x="2261.5" y="-184.5" as="targetPoint" />
          </mxGeometry>
        </mxCell>
        <mxCell id="oNP2qV1vk9qxkLpK5DE2-52" value="" style="endArrow=none;html=1;rounded=0;entryX=1;entryY=1;entryDx=0;entryDy=0;exitX=0.25;exitY=0;exitDx=0;exitDy=0;" parent="1" target="oNP2qV1vk9qxkLpK5DE2-35" edge="1">
          <mxGeometry width="50" height="50" relative="1" as="geometry">
            <mxPoint x="2184" y="-399.5" as="sourcePoint" />
            <mxPoint x="2261.5" y="-184.5" as="targetPoint" />
          </mxGeometry>
        </mxCell>
        <mxCell id="oNP2qV1vk9qxkLpK5DE2-53" value="" style="endArrow=none;html=1;rounded=0;entryX=1;entryY=1;entryDx=0;entryDy=0;exitX=0;exitY=0.25;exitDx=0;exitDy=0;" parent="1" target="oNP2qV1vk9qxkLpK5DE2-31" edge="1">
          <mxGeometry width="50" height="50" relative="1" as="geometry">
            <mxPoint x="2151.5" y="-384.5" as="sourcePoint" />
            <mxPoint x="2261.5" y="-184.5" as="targetPoint" />
          </mxGeometry>
        </mxCell>
        <mxCell id="oNP2qV1vk9qxkLpK5DE2-54" value="" style="endArrow=none;html=1;rounded=0;entryX=1;entryY=0.5;entryDx=0;entryDy=0;exitX=0;exitY=0.5;exitDx=0;exitDy=0;" parent="1" target="oNP2qV1vk9qxkLpK5DE2-41" edge="1">
          <mxGeometry width="50" height="50" relative="1" as="geometry">
            <mxPoint x="2151.5" y="-369.5" as="sourcePoint" />
            <mxPoint x="2118.5" y="-396.5" as="targetPoint" />
          </mxGeometry>
        </mxCell>
        <mxCell id="oNP2qV1vk9qxkLpK5DE2-55" value="" style="endArrow=none;html=1;rounded=0;entryX=1;entryY=1;entryDx=0;entryDy=0;exitX=0.5;exitY=0;exitDx=0;exitDy=0;" parent="1" source="oNP2qV1vk9qxkLpK5DE2-66" target="oNP2qV1vk9qxkLpK5DE2-40" edge="1">
          <mxGeometry width="50" height="50" relative="1" as="geometry">
            <mxPoint x="1857.75" y="-398" as="sourcePoint" />
            <mxPoint x="2009.75" y="-348" as="targetPoint" />
          </mxGeometry>
        </mxCell>
        <mxCell id="oNP2qV1vk9qxkLpK5DE2-56" value="" style="endArrow=none;html=1;rounded=0;entryX=1;entryY=1;entryDx=0;entryDy=0;exitX=0.25;exitY=0;exitDx=0;exitDy=0;" parent="1" source="oNP2qV1vk9qxkLpK5DE2-66" target="oNP2qV1vk9qxkLpK5DE2-29" edge="1">
          <mxGeometry width="50" height="50" relative="1" as="geometry">
            <mxPoint x="1825.25" y="-398" as="sourcePoint" />
            <mxPoint x="1808.75" y="-435" as="targetPoint" />
          </mxGeometry>
        </mxCell>
        <mxCell id="oNP2qV1vk9qxkLpK5DE2-57" value="" style="endArrow=none;html=1;rounded=0;entryX=1;entryY=0.5;entryDx=0;entryDy=0;exitX=0;exitY=0.5;exitDx=0;exitDy=0;" parent="1" source="oNP2qV1vk9qxkLpK5DE2-66" target="oNP2qV1vk9qxkLpK5DE2-30" edge="1">
          <mxGeometry width="50" height="50" relative="1" as="geometry">
            <mxPoint x="1792.75" y="-368" as="sourcePoint" />
            <mxPoint x="1818.75" y="-425" as="targetPoint" />
          </mxGeometry>
        </mxCell>
        <mxCell id="oNP2qV1vk9qxkLpK5DE2-58" value="" style="endArrow=none;html=1;rounded=0;entryX=1;entryY=0;entryDx=0;entryDy=0;exitX=0;exitY=0.5;exitDx=0;exitDy=0;" parent="1" source="oNP2qV1vk9qxkLpK5DE2-66" target="oNP2qV1vk9qxkLpK5DE2-42" edge="1">
          <mxGeometry width="50" height="50" relative="1" as="geometry">
            <mxPoint x="1792.75" y="-368" as="sourcePoint" />
            <mxPoint x="1752.75" y="-373" as="targetPoint" />
          </mxGeometry>
        </mxCell>
        <mxCell id="oNP2qV1vk9qxkLpK5DE2-59" value="" style="endArrow=none;html=1;rounded=0;exitX=1;exitY=0;exitDx=0;exitDy=0;entryX=0.25;entryY=1;entryDx=0;entryDy=0;" parent="1" source="oNP2qV1vk9qxkLpK5DE2-43" target="oNP2qV1vk9qxkLpK5DE2-66" edge="1">
          <mxGeometry width="50" height="50" relative="1" as="geometry">
            <mxPoint x="1959.75" y="-298" as="sourcePoint" />
            <mxPoint x="1825.25" y="-338" as="targetPoint" />
          </mxGeometry>
        </mxCell>
        <mxCell id="oNP2qV1vk9qxkLpK5DE2-61" value="Contains" style="shape=rhombus;perimeter=rhombusPerimeter;whiteSpace=wrap;html=1;align=center;" parent="1" vertex="1">
          <mxGeometry x="1982.5" y="-270" width="120" height="80" as="geometry" />
        </mxCell>
        <mxCell id="oNP2qV1vk9qxkLpK5DE2-66" value="&lt;font style=&quot;font-size: 18px;&quot;&gt;EmailSubject&lt;/font&gt;" style="rounded=0;whiteSpace=wrap;html=1;" parent="1" vertex="1">
          <mxGeometry x="1795" y="-401" width="130" height="60" as="geometry" />
        </mxCell>
        <mxCell id="oNP2qV1vk9qxkLpK5DE2-67" value="&lt;font style=&quot;font-size: 18px;&quot;&gt;EmailBody&lt;/font&gt;" style="rounded=0;whiteSpace=wrap;html=1;" parent="1" vertex="1">
          <mxGeometry x="2153.75" y="-401" width="130" height="60" as="geometry" />
        </mxCell>
        <mxCell id="oNP2qV1vk9qxkLpK5DE2-72" value="" style="ellipse;whiteSpace=wrap;html=1;fillColor=none;rotation=90;" parent="1" vertex="1">
          <mxGeometry x="1817" y="-303.5" width="85.75" height="16" as="geometry" />
        </mxCell>
        <mxCell id="oNP2qV1vk9qxkLpK5DE2-73" value="" style="rounded=0;whiteSpace=wrap;html=1;strokeColor=none;rotation=90;" parent="1" vertex="1">
          <mxGeometry x="1820.75" y="-301.5" width="84.5" height="36" as="geometry" />
        </mxCell>
        <mxCell id="oNP2qV1vk9qxkLpK5DE2-71" value="" style="endArrow=none;html=1;rounded=0;entryX=0;entryY=0;entryDx=0;entryDy=0;exitX=0.5;exitY=1;exitDx=0;exitDy=0;" parent="1" source="oNP2qV1vk9qxkLpK5DE2-66" target="oNP2qV1vk9qxkLpK5DE2-61" edge="1">
          <mxGeometry width="50" height="50" relative="1" as="geometry">
            <mxPoint x="1800" y="-230" as="sourcePoint" />
            <mxPoint x="1850" y="-280" as="targetPoint" />
            <Array as="points">
              <mxPoint x="1860" y="-250" />
            </Array>
          </mxGeometry>
        </mxCell>
        <mxCell id="oNP2qV1vk9qxkLpK5DE2-75" value="" style="ellipse;whiteSpace=wrap;html=1;fillColor=none;rotation=90;" parent="1" vertex="1">
          <mxGeometry x="2175.63" y="-305.5" width="85.75" height="16" as="geometry" />
        </mxCell>
        <mxCell id="oNP2qV1vk9qxkLpK5DE2-76" value="" style="rounded=0;whiteSpace=wrap;html=1;strokeColor=none;rotation=90;" parent="1" vertex="1">
          <mxGeometry x="2178.38" y="-307.5" width="84.5" height="36" as="geometry" />
        </mxCell>
        <mxCell id="oNP2qV1vk9qxkLpK5DE2-70" value="" style="endArrow=none;html=1;rounded=0;entryX=0.5;entryY=1;entryDx=0;entryDy=0;exitX=1;exitY=0;exitDx=0;exitDy=0;" parent="1" source="oNP2qV1vk9qxkLpK5DE2-61" target="oNP2qV1vk9qxkLpK5DE2-67" edge="1">
          <mxGeometry width="50" height="50" relative="1" as="geometry">
            <mxPoint x="2094.5" y="-250" as="sourcePoint" />
            <mxPoint x="1922" y="-280" as="targetPoint" />
            <Array as="points">
              <mxPoint x="2219" y="-250" />
            </Array>
          </mxGeometry>
        </mxCell>
        <mxCell id="oNP2qV1vk9qxkLpK5DE2-77" value="&lt;span style=&quot;font-size: 14px;&quot;&gt;&lt;u&gt;&lt;b&gt;subjectID&lt;/b&gt;&lt;/u&gt;&lt;/span&gt;" style="ellipse;whiteSpace=wrap;html=1;align=center;" parent="1" vertex="1">
          <mxGeometry x="1750.75" y="-305.5" width="69.5" height="50" as="geometry" />
        </mxCell>
        <mxCell id="oNP2qV1vk9qxkLpK5DE2-78" value="&lt;span style=&quot;font-size: 14px;&quot;&gt;&lt;u&gt;&lt;b&gt;bodyID&lt;/b&gt;&lt;/u&gt;&lt;/span&gt;" style="ellipse;whiteSpace=wrap;html=1;align=center;" parent="1" vertex="1">
          <mxGeometry x="2084.25" y="-339.5" width="69.5" height="50" as="geometry" />
        </mxCell>
        <mxCell id="oNP2qV1vk9qxkLpK5DE2-79" value="" style="endArrow=none;html=1;rounded=0;entryX=0.25;entryY=1;entryDx=0;entryDy=0;exitX=1;exitY=0;exitDx=0;exitDy=0;" parent="1" source="oNP2qV1vk9qxkLpK5DE2-77" target="oNP2qV1vk9qxkLpK5DE2-66" edge="1">
          <mxGeometry width="50" height="50" relative="1" as="geometry">
            <mxPoint x="1740.25" y="-219.5" as="sourcePoint" />
            <mxPoint x="1790.25" y="-269.5" as="targetPoint" />
          </mxGeometry>
        </mxCell>
        <mxCell id="oNP2qV1vk9qxkLpK5DE2-80" value="" style="endArrow=none;html=1;rounded=0;entryX=0.25;entryY=1;entryDx=0;entryDy=0;exitX=1;exitY=0;exitDx=0;exitDy=0;" parent="1" source="oNP2qV1vk9qxkLpK5DE2-78" target="oNP2qV1vk9qxkLpK5DE2-67" edge="1">
          <mxGeometry width="50" height="50" relative="1" as="geometry">
            <mxPoint x="1952" y="-165" as="sourcePoint" />
            <mxPoint x="1969" y="-206" as="targetPoint" />
          </mxGeometry>
        </mxCell>
        <mxCell id="oNP2qV1vk9qxkLpK5DE2-90" style="edgeStyle=orthogonalEdgeStyle;rounded=0;orthogonalLoop=1;jettySize=auto;html=1;exitX=0.5;exitY=1;exitDx=0;exitDy=0;entryX=0.5;entryY=0;entryDx=0;entryDy=0;" parent="1" source="oNP2qV1vk9qxkLpK5DE2-88" target="oNP2qV1vk9qxkLpK5DE2-91" edge="1">
          <mxGeometry relative="1" as="geometry" />
        </mxCell>
        <mxCell id="oNP2qV1vk9qxkLpK5DE2-88" value="Lives_At" style="shape=rhombus;perimeter=rhombusPerimeter;whiteSpace=wrap;html=1;align=center;" parent="1" vertex="1">
          <mxGeometry x="132.25" y="-425.75" width="95.5" height="79.5" as="geometry" />
        </mxCell>
        <mxCell id="oNP2qV1vk9qxkLpK5DE2-89" value="" style="endArrow=none;html=1;rounded=0;exitX=0;exitY=0.5;exitDx=0;exitDy=0;entryX=1;entryY=0.5;entryDx=0;entryDy=0;" parent="1" source="Gakhrwl31I4esTH9U-xx-1" target="oNP2qV1vk9qxkLpK5DE2-88" edge="1">
          <mxGeometry width="50" height="50" relative="1" as="geometry">
            <mxPoint x="1110" y="-200" as="sourcePoint" />
            <mxPoint x="1160" y="-250" as="targetPoint" />
          </mxGeometry>
        </mxCell>
        <mxCell id="oNP2qV1vk9qxkLpK5DE2-91" value="&lt;font style=&quot;font-size: 18px;&quot;&gt;LocationDetails&lt;/font&gt;" style="rounded=0;whiteSpace=wrap;html=1;" parent="1" vertex="1">
          <mxGeometry x="105" y="-68" width="150" height="60" as="geometry" />
        </mxCell>
        <mxCell id="oNP2qV1vk9qxkLpK5DE2-93" style="edgeStyle=orthogonalEdgeStyle;rounded=0;orthogonalLoop=1;jettySize=auto;html=1;exitX=1;exitY=0.5;exitDx=0;exitDy=0;entryX=0;entryY=0.75;entryDx=0;entryDy=0;" parent="1" source="oNP2qV1vk9qxkLpK5DE2-92" target="jbjfD_LgMQHEfF6mrriQ-21" edge="1">
          <mxGeometry relative="1" as="geometry">
            <Array as="points">
              <mxPoint x="163" y="577" />
              <mxPoint x="512" y="577" />
            </Array>
          </mxGeometry>
        </mxCell>
        <mxCell id="oNP2qV1vk9qxkLpK5DE2-94" style="edgeStyle=orthogonalEdgeStyle;rounded=0;orthogonalLoop=1;jettySize=auto;html=1;exitX=0.5;exitY=0;exitDx=0;exitDy=0;entryX=0.5;entryY=1;entryDx=0;entryDy=0;" parent="1" source="oNP2qV1vk9qxkLpK5DE2-92" target="oNP2qV1vk9qxkLpK5DE2-91" edge="1">
          <mxGeometry relative="1" as="geometry">
            <Array as="points">
              <mxPoint x="180" y="536" />
            </Array>
          </mxGeometry>
        </mxCell>
        <mxCell id="oNP2qV1vk9qxkLpK5DE2-92" value="Found_At" style="shape=rhombus;perimeter=rhombusPerimeter;whiteSpace=wrap;html=1;align=center;" parent="1" vertex="1">
          <mxGeometry x="130" y="536.5" width="100" height="80" as="geometry" />
        </mxCell>
        <mxCell id="oNP2qV1vk9qxkLpK5DE2-95" value="" style="endArrow=none;html=1;rounded=0;exitX=1;exitY=1;exitDx=0;exitDy=0;entryX=0.25;entryY=0;entryDx=0;entryDy=0;" parent="1" source="Gakhrwl31I4esTH9U-xx-64" target="oNP2qV1vk9qxkLpK5DE2-91" edge="1">
          <mxGeometry width="50" height="50" relative="1" as="geometry">
            <mxPoint x="1170" y="590" as="sourcePoint" />
            <mxPoint x="1220" y="540" as="targetPoint" />
          </mxGeometry>
        </mxCell>
        <mxCell id="oNP2qV1vk9qxkLpK5DE2-96" value="" style="endArrow=none;html=1;rounded=0;exitX=0;exitY=0.5;exitDx=0;exitDy=0;entryX=1;entryY=0.5;entryDx=0;entryDy=0;" parent="1" source="oNP2qV1vk9qxkLpK5DE2-91" target="Gakhrwl31I4esTH9U-xx-65" edge="1">
          <mxGeometry width="50" height="50" relative="1" as="geometry">
            <mxPoint x="1283" y="684" as="sourcePoint" />
            <mxPoint x="1317" y="659" as="targetPoint" />
          </mxGeometry>
        </mxCell>
        <mxCell id="oNP2qV1vk9qxkLpK5DE2-97" value="" style="endArrow=none;html=1;rounded=0;exitX=0.75;exitY=0;exitDx=0;exitDy=0;entryX=0;entryY=1;entryDx=0;entryDy=0;" parent="1" source="oNP2qV1vk9qxkLpK5DE2-91" target="Gakhrwl31I4esTH9U-xx-63" edge="1">
          <mxGeometry width="50" height="50" relative="1" as="geometry">
            <mxPoint x="1317" y="659" as="sourcePoint" />
            <mxPoint x="1380" y="684" as="targetPoint" />
          </mxGeometry>
        </mxCell>
        <mxCell id="oNP2qV1vk9qxkLpK5DE2-98" value="" style="endArrow=none;html=1;rounded=0;exitX=0.25;exitY=1;exitDx=0;exitDy=0;entryX=1;entryY=0;entryDx=0;entryDy=0;" parent="1" source="oNP2qV1vk9qxkLpK5DE2-91" target="Gakhrwl31I4esTH9U-xx-66" edge="1">
          <mxGeometry width="50" height="50" relative="1" as="geometry">
            <mxPoint x="1392" y="614" as="sourcePoint" />
            <mxPoint x="1420" y="594" as="targetPoint" />
          </mxGeometry>
        </mxCell>
        <mxCell id="6_mZaNbz55coI-xGDjYG-1" value="" style="endArrow=none;html=1;rounded=0;entryX=0.5;entryY=1;entryDx=0;entryDy=0;exitX=0;exitY=0.5;exitDx=0;exitDy=0;" parent="1" source="jbjfD_LgMQHEfF6mrriQ-21" target="jbjfD_LgMQHEfF6mrriQ-39" edge="1">
          <mxGeometry width="50" height="50" relative="1" as="geometry">
            <mxPoint x="880" y="400" as="sourcePoint" />
            <mxPoint x="930" y="350" as="targetPoint" />
            <Array as="points">
              <mxPoint x="455" y="560" />
            </Array>
          </mxGeometry>
        </mxCell>
        <mxCell id="6_mZaNbz55coI-xGDjYG-3" value="" style="endArrow=none;html=1;rounded=0;entryX=1;entryY=0.75;entryDx=0;entryDy=0;exitX=0;exitY=0;exitDx=0;exitDy=0;" parent="1" source="Gakhrwl31I4esTH9U-xx-70" target="jbjfD_LgMQHEfF6mrriQ-21" edge="1">
          <mxGeometry width="50" height="50" relative="1" as="geometry">
            <mxPoint x="1160" y="430" as="sourcePoint" />
            <mxPoint x="1210" y="380" as="targetPoint" />
          </mxGeometry>
        </mxCell>
        <mxCell id="6_mZaNbz55coI-xGDjYG-6" value="&lt;font style=&quot;font-size: 14px;&quot;&gt;firstName&lt;/font&gt;" style="ellipse;whiteSpace=wrap;html=1;align=center;" parent="1" vertex="1">
          <mxGeometry x="1410.37" y="-265.5" width="85" height="50" as="geometry" />
        </mxCell>
        <mxCell id="6_mZaNbz55coI-xGDjYG-7" value="&lt;font style=&quot;font-size: 14px;&quot;&gt;lastName&lt;/font&gt;" style="ellipse;whiteSpace=wrap;html=1;align=center;" parent="1" vertex="1">
          <mxGeometry x="1312.12" y="-278.5" width="85" height="50" as="geometry" />
        </mxCell>
        <mxCell id="6_mZaNbz55coI-xGDjYG-8" value="&lt;font style=&quot;font-size: 14px;&quot;&gt;telephoneNumber&lt;/font&gt;" style="ellipse;whiteSpace=wrap;html=1;align=center;" parent="1" vertex="1">
          <mxGeometry x="1165" y="-278.5" width="135" height="50" as="geometry" />
        </mxCell>
        <mxCell id="6_mZaNbz55coI-xGDjYG-9" value="" style="endArrow=none;html=1;rounded=0;entryX=0.5;entryY=1;entryDx=0;entryDy=0;exitX=0.78;exitY=0.05;exitDx=0;exitDy=0;exitPerimeter=0;" parent="1" source="SZ-wyGLzeMSu0Oj88Bv0-1" target="6_mZaNbz55coI-xGDjYG-7" edge="1">
          <mxGeometry width="50" height="50" relative="1" as="geometry">
            <mxPoint x="1247.25" y="-135" as="sourcePoint" />
            <mxPoint x="1392.0000000000155" y="-150" as="targetPoint" />
          </mxGeometry>
        </mxCell>
        <mxCell id="6_mZaNbz55coI-xGDjYG-10" value="" style="endArrow=none;html=1;rounded=0;entryX=0;entryY=1;entryDx=0;entryDy=0;exitX=1;exitY=0;exitDx=0;exitDy=0;" parent="1" source="SZ-wyGLzeMSu0Oj88Bv0-1" target="6_mZaNbz55coI-xGDjYG-6" edge="1">
          <mxGeometry width="50" height="50" relative="1" as="geometry">
            <mxPoint x="1301.625" y="-135" as="sourcePoint" />
            <mxPoint x="1404" y="-98" as="targetPoint" />
          </mxGeometry>
        </mxCell>
        <mxCell id="6_mZaNbz55coI-xGDjYG-11" value="" style="endArrow=classic;html=1;rounded=0;exitX=0.5;exitY=1;exitDx=0;exitDy=0;entryX=0.75;entryY=0;entryDx=0;entryDy=0;" parent="1" source="6_mZaNbz55coI-xGDjYG-17" target="jbjfD_LgMQHEfF6mrriQ-21" edge="1">
          <mxGeometry width="50" height="50" relative="1" as="geometry">
            <mxPoint x="1488.5" y="202" as="sourcePoint" />
            <mxPoint x="892" y="771" as="targetPoint" />
            <Array as="points">
              <mxPoint x="890" y="455" />
            </Array>
          </mxGeometry>
        </mxCell>
        <mxCell id="6_mZaNbz55coI-xGDjYG-12" value="&lt;font style=&quot;font-size: 14px;&quot;&gt;&lt;b&gt;&lt;u&gt;startDate&lt;/u&gt;&lt;/b&gt;&lt;/font&gt;" style="ellipse;whiteSpace=wrap;html=1;align=center;" parent="1" vertex="1">
          <mxGeometry x="1112" y="321.5" width="88" height="40" as="geometry" />
        </mxCell>
        <mxCell id="6_mZaNbz55coI-xGDjYG-13" value="endDate" style="ellipse;whiteSpace=wrap;html=1;align=center;" parent="1" vertex="1">
          <mxGeometry x="1290" y="320" width="85.5" height="37" as="geometry" />
        </mxCell>
        <mxCell id="6_mZaNbz55coI-xGDjYG-14" value="" style="endArrow=none;html=1;rounded=0;entryX=1;entryY=1;entryDx=0;entryDy=0;exitX=0.5;exitY=0;exitDx=0;exitDy=0;" parent="1" source="6_mZaNbz55coI-xGDjYG-13" target="6_mZaNbz55coI-xGDjYG-16" edge="1">
          <mxGeometry relative="1" as="geometry">
            <mxPoint x="1318.5" y="292" as="sourcePoint" />
            <mxPoint x="1233" y="222" as="targetPoint" />
          </mxGeometry>
        </mxCell>
        <mxCell id="6_mZaNbz55coI-xGDjYG-15" value="" style="endArrow=none;html=1;rounded=0;exitX=0.5;exitY=0;exitDx=0;exitDy=0;entryX=0;entryY=1;entryDx=0;entryDy=0;" parent="1" source="6_mZaNbz55coI-xGDjYG-12" target="6_mZaNbz55coI-xGDjYG-16" edge="1">
          <mxGeometry relative="1" as="geometry">
            <mxPoint x="1258.5" y="272" as="sourcePoint" />
            <mxPoint x="1228.5" y="222" as="targetPoint" />
          </mxGeometry>
        </mxCell>
        <mxCell id="6_mZaNbz55coI-xGDjYG-16" value="Assignment" style="shape=ext;margin=3;double=1;whiteSpace=wrap;html=1;align=center;" parent="1" vertex="1">
          <mxGeometry x="1200" y="241" width="100" height="40" as="geometry" />
        </mxCell>
        <mxCell id="6_mZaNbz55coI-xGDjYG-17" value="assignsTo" style="shape=rhombus;double=1;perimeter=rhombusPerimeter;whiteSpace=wrap;html=1;align=center;" parent="1" vertex="1">
          <mxGeometry x="1190" y="395" width="120" height="60" as="geometry" />
        </mxCell>
        <mxCell id="6_mZaNbz55coI-xGDjYG-18" value="&lt;font style=&quot;font-size: 14px;&quot;&gt;assigns&lt;/font&gt;" style="shape=rhombus;double=1;perimeter=rhombusPerimeter;whiteSpace=wrap;html=1;align=center;" parent="1" vertex="1">
          <mxGeometry x="969" y="56" width="120" height="60" as="geometry" />
        </mxCell>
        <mxCell id="6_mZaNbz55coI-xGDjYG-19" value="&lt;font style=&quot;font-size: 14px;&quot;&gt;getAssigned&lt;/font&gt;" style="shape=rhombus;double=1;perimeter=rhombusPerimeter;whiteSpace=wrap;html=1;align=center;" parent="1" vertex="1">
          <mxGeometry x="1417.5" y="56.5" width="120" height="60" as="geometry" />
        </mxCell>
        <mxCell id="6_mZaNbz55coI-xGDjYG-21" value="&lt;font style=&quot;font-size: 14px;&quot;&gt;primaryRelationship&lt;/font&gt;" style="ellipse;whiteSpace=wrap;html=1;align=center;" parent="1" vertex="1">
          <mxGeometry x="980" y="262" width="160" height="44" as="geometry" />
        </mxCell>
        <mxCell id="6_mZaNbz55coI-xGDjYG-22" value="" style="endArrow=none;html=1;rounded=0;entryX=1;entryY=0.5;entryDx=0;entryDy=0;exitX=0;exitY=0.5;exitDx=0;exitDy=0;" parent="1" source="6_mZaNbz55coI-xGDjYG-16" target="6_mZaNbz55coI-xGDjYG-21" edge="1">
          <mxGeometry width="50" height="50" relative="1" as="geometry">
            <mxPoint x="30" y="-732" as="sourcePoint" />
            <mxPoint x="80" y="-782" as="targetPoint" />
          </mxGeometry>
        </mxCell>
        <mxCell id="6_mZaNbz55coI-xGDjYG-24" value="" style="endArrow=classic;html=1;rounded=0;entryX=0.5;entryY=1;entryDx=0;entryDy=0;exitX=0.5;exitY=0;exitDx=0;exitDy=0;" parent="1" source="6_mZaNbz55coI-xGDjYG-30" target="SZ-wyGLzeMSu0Oj88Bv0-1" edge="1">
          <mxGeometry width="50" height="50" relative="1" as="geometry">
            <mxPoint x="1228.75" y="-169.99999999999977" as="sourcePoint" />
            <mxPoint x="1247.25" y="-90" as="targetPoint" />
          </mxGeometry>
        </mxCell>
        <mxCell id="6_mZaNbz55coI-xGDjYG-25" value="" style="endArrow=none;html=1;rounded=0;entryX=0.5;entryY=1;entryDx=0;entryDy=0;exitX=0.5;exitY=0;exitDx=0;exitDy=0;" parent="1" source="SZ-wyGLzeMSu0Oj88Bv0-1" target="6_mZaNbz55coI-xGDjYG-8" edge="1">
          <mxGeometry width="50" height="50" relative="1" as="geometry">
            <mxPoint x="1192.875" y="-135" as="sourcePoint" />
            <mxPoint x="1109" y="-81" as="targetPoint" />
          </mxGeometry>
        </mxCell>
        <mxCell id="6_mZaNbz55coI-xGDjYG-26" value="&lt;font style=&quot;font-size: 14px;&quot;&gt;&lt;b&gt;&lt;u&gt;secondaryFamilyMemberID&lt;/u&gt;&lt;/b&gt;&lt;/font&gt;" style="ellipse;whiteSpace=wrap;html=1;align=center;" parent="1" vertex="1">
          <mxGeometry x="940" y="-278.5" width="215" height="60" as="geometry" />
        </mxCell>
        <mxCell id="6_mZaNbz55coI-xGDjYG-27" value="" style="endArrow=none;html=1;rounded=0;entryX=1;entryY=1;entryDx=0;entryDy=0;" parent="1" source="SZ-wyGLzeMSu0Oj88Bv0-1" target="6_mZaNbz55coI-xGDjYG-26" edge="1">
          <mxGeometry width="50" height="50" relative="1" as="geometry">
            <mxPoint x="1138.5" y="-135" as="sourcePoint" />
            <mxPoint x="1354.75" y="-53" as="targetPoint" />
          </mxGeometry>
        </mxCell>
        <mxCell id="6_mZaNbz55coI-xGDjYG-28" value="&lt;font style=&quot;font-size: 14px;&quot;&gt;secondaryRelationship&lt;/font&gt;" style="ellipse;whiteSpace=wrap;html=1;align=center;" parent="1" vertex="1">
          <mxGeometry x="1334.5" y="258" width="160" height="44" as="geometry" />
        </mxCell>
        <mxCell id="6_mZaNbz55coI-xGDjYG-29" value="" style="endArrow=none;html=1;rounded=0;entryX=0;entryY=0.5;entryDx=0;entryDy=0;exitX=1;exitY=0.5;exitDx=0;exitDy=0;" parent="1" source="6_mZaNbz55coI-xGDjYG-16" target="6_mZaNbz55coI-xGDjYG-28" edge="1">
          <mxGeometry width="50" height="50" relative="1" as="geometry">
            <mxPoint x="1554.5" y="257" as="sourcePoint" />
            <mxPoint x="434.5" y="-786" as="targetPoint" />
          </mxGeometry>
        </mxCell>
        <mxCell id="6_mZaNbz55coI-xGDjYG-30" value="&lt;font style=&quot;font-size: 14px;&quot;&gt;relatedTo&lt;/font&gt;" style="shape=rhombus;double=1;perimeter=rhombusPerimeter;whiteSpace=wrap;html=1;align=center;" parent="1" vertex="1">
          <mxGeometry x="1190" y="80" width="120" height="60" as="geometry" />
        </mxCell>
        <mxCell id="6_mZaNbz55coI-xGDjYG-31" value="" style="endArrow=none;html=1;rounded=0;entryX=0.5;entryY=1;entryDx=0;entryDy=0;exitX=0.5;exitY=0;exitDx=0;exitDy=0;" parent="1" source="6_mZaNbz55coI-xGDjYG-16" target="6_mZaNbz55coI-xGDjYG-30" edge="1">
          <mxGeometry width="50" height="50" relative="1" as="geometry">
            <mxPoint x="960" y="20" as="sourcePoint" />
            <mxPoint x="1010" y="-30" as="targetPoint" />
          </mxGeometry>
        </mxCell>
        <mxCell id="6_mZaNbz55coI-xGDjYG-32" value="" style="endArrow=none;html=1;rounded=0;entryX=0.5;entryY=1;entryDx=0;entryDy=0;exitX=0.5;exitY=0;exitDx=0;exitDy=0;" parent="1" source="6_mZaNbz55coI-xGDjYG-17" target="6_mZaNbz55coI-xGDjYG-16" edge="1">
          <mxGeometry width="50" height="50" relative="1" as="geometry">
            <mxPoint x="1130" y="240" as="sourcePoint" />
            <mxPoint x="1180" y="190" as="targetPoint" />
          </mxGeometry>
        </mxCell>
        <mxCell id="6_mZaNbz55coI-xGDjYG-33" value="" style="endArrow=none;html=1;rounded=0;entryX=0.5;entryY=1;entryDx=0;entryDy=0;exitX=0.25;exitY=0;exitDx=0;exitDy=0;" parent="1" source="6_mZaNbz55coI-xGDjYG-16" target="6_mZaNbz55coI-xGDjYG-18" edge="1">
          <mxGeometry width="50" height="50" relative="1" as="geometry">
            <mxPoint x="1180" y="260" as="sourcePoint" />
            <mxPoint x="1230" y="210" as="targetPoint" />
          </mxGeometry>
        </mxCell>
        <mxCell id="6_mZaNbz55coI-xGDjYG-34" value="" style="endArrow=none;html=1;rounded=0;entryX=0.5;entryY=1;entryDx=0;entryDy=0;exitX=0.75;exitY=0;exitDx=0;exitDy=0;" parent="1" source="6_mZaNbz55coI-xGDjYG-16" target="6_mZaNbz55coI-xGDjYG-19" edge="1">
          <mxGeometry width="50" height="50" relative="1" as="geometry">
            <mxPoint x="1180" y="260" as="sourcePoint" />
            <mxPoint x="1230" y="210" as="targetPoint" />
          </mxGeometry>
        </mxCell>
        <mxCell id="6_mZaNbz55coI-xGDjYG-35" value="" style="endArrow=classic;html=1;rounded=0;entryX=0;entryY=0.5;entryDx=0;entryDy=0;exitX=0.5;exitY=0;exitDx=0;exitDy=0;" parent="1" source="6_mZaNbz55coI-xGDjYG-19" target="Gakhrwl31I4esTH9U-xx-3" edge="1">
          <mxGeometry width="50" height="50" relative="1" as="geometry">
            <mxPoint x="1180" y="70" as="sourcePoint" />
            <mxPoint x="1380" y="-10" as="targetPoint" />
            <Array as="points">
              <mxPoint x="1480" y="-50" />
            </Array>
          </mxGeometry>
        </mxCell>
        <mxCell id="N7yjCYdlVPtpoD6RmBJW-1" value="&lt;font style=&quot;font-size: 14px;&quot;&gt;headCoachID&lt;/font&gt;" style="ellipse;whiteSpace=wrap;html=1;align=center;" parent="1" vertex="1">
          <mxGeometry x="2140" y="271.5" width="107.75" height="59" as="geometry" />
        </mxCell>
        <mxCell id="N7yjCYdlVPtpoD6RmBJW-2" value="" style="endArrow=none;html=1;rounded=0;entryX=0;entryY=0;entryDx=0;entryDy=0;exitX=1;exitY=0.25;exitDx=0;exitDy=0;" parent="1" source="Gakhrwl31I4esTH9U-xx-72" target="N7yjCYdlVPtpoD6RmBJW-1" edge="1">
          <mxGeometry width="50" height="50" relative="1" as="geometry">
            <mxPoint x="1850" y="240" as="sourcePoint" />
            <mxPoint x="1900" y="190" as="targetPoint" />
          </mxGeometry>
        </mxCell>
        <mxCell id="SZ-wyGLzeMSu0Oj88Bv0-1" value="&lt;font style=&quot;font-size: 18px;&quot;&gt;SecondaryFamilyMember&lt;/font&gt;" style="shape=ext;margin=3;double=1;whiteSpace=wrap;html=1;align=center;" vertex="1" parent="1">
          <mxGeometry x="1125" y="-150" width="250" height="60" as="geometry" />
        </mxCell>
        <mxCell id="SZ-wyGLzeMSu0Oj88Bv0-2" style="edgeStyle=orthogonalEdgeStyle;rounded=0;orthogonalLoop=1;jettySize=auto;html=1;entryX=0.75;entryY=0;entryDx=0;entryDy=0;exitX=0;exitY=0.5;exitDx=0;exitDy=0;" edge="1" parent="1" source="SZ-wyGLzeMSu0Oj88Bv0-6" target="Gakhrwl31I4esTH9U-xx-2">
          <mxGeometry relative="1" as="geometry">
            <mxPoint x="979" y="-129" as="sourcePoint" />
            <mxPoint x="932" y="-30" as="targetPoint" />
          </mxGeometry>
        </mxCell>
        <mxCell id="SZ-wyGLzeMSu0Oj88Bv0-6" value="Designates" style="shape=rhombus;double=1;perimeter=rhombusPerimeter;whiteSpace=wrap;html=1;align=center;" vertex="1" parent="1">
          <mxGeometry x="960" y="-150" width="120" height="60" as="geometry" />
        </mxCell>
        <mxCell id="SZ-wyGLzeMSu0Oj88Bv0-7" value="" style="endArrow=none;html=1;rounded=0;entryX=0;entryY=0.5;entryDx=0;entryDy=0;exitX=1;exitY=0.5;exitDx=0;exitDy=0;" edge="1" parent="1" source="SZ-wyGLzeMSu0Oj88Bv0-6" target="SZ-wyGLzeMSu0Oj88Bv0-1">
          <mxGeometry width="50" height="50" relative="1" as="geometry">
            <mxPoint x="1100" y="-120" as="sourcePoint" />
            <mxPoint x="1110" y="-170" as="targetPoint" />
          </mxGeometry>
        </mxCell>
      </root>
    </mxGraphModel>
  </diagram>
</mxfile>
